<?xml version="1.0" encoding="utf-8"?>
<!-- Generator: Adobe Illustrator 23.0.6, SVG Export Plug-In . SVG Version: 6.00 Build 0)  -->
<svg version="1.1" id="Layer_1" xmlns="http://www.w3.org/2000/svg" xmlns:xlink="http://www.w3.org/1999/xlink" x="0px" y="0px"
	 viewBox="0 0 595.28 841.89" style="enable-background:new 0 0 595.28 841.89;" xml:space="preserve">
<style type="text/css">
	.st0{fill:#3F5FAC;stroke:#000000;stroke-linecap:round;stroke-miterlimit:10;}
	.st1{fill:#939598;}
	.st2{fill:#5D6363;stroke:#000000;stroke-miterlimit:10;}
	.st3{fill:#070E10;}
	.st4{fill:#030202;}
	.st5{fill:#00A14B;}
	.st6{fill:#009444;}
	.st7{fill:#ED1C24;}
	.st8{fill:#21409A;stroke:#000000;stroke-linecap:round;stroke-miterlimit:10;}
	.st9{fill:#808285;}
	.st10{fill:#F5813C;}
	.st11{fill:#A7A9AC;}
</style>
<circle class="st0" cx="297.53" cy="510.02" r="113.39"/>
<g>
	<path class="st1" d="M258.99,500.09c-5.93-0.02-11.85-0.05-17.78-0.07c-1.62-0.01-3.28-0.01-4.81,0.54
		c-2.85,1.02-4.69,3.72-6.33,6.26c-2.23,3.44-4.5,6.98-5.4,10.98c-1.16,5.22,0.14,10.65,1.62,15.79c1.41,4.91,3.03,9.85,5.98,14.03
		c2.94,4.17,7.43,7.53,12.51,7.98c1.04,0.09,2.14,0.05,3.03-0.49c1.01-0.62,1.56-1.78,1.96-2.89c1.39-3.86,1.76-8,2.05-12.09
		c0.77-11.11,0.98-22.26,0.63-33.39c-0.01-0.43-0.12-0.99-0.55-1.07c-0.43-0.08-0.38,0.86-0.05,0.59"/>
	<g>
		<path d="M259.92,499.47c-6-0.02-12-0.06-18-0.07c-2.55,0-5.09,0.19-7.38,1.4c-1.92,1.01-3.37,2.62-4.61,4.37
			c-2.93,4.1-6.01,8.76-6.86,13.81c-0.95,5.64,0.66,11.33,2.27,16.69c2.65,8.8,7.53,19.04,17.76,20.47c2.17,0.3,4.75,0.11,6.46-1.43
			c1.76-1.58,2.29-4.47,2.74-6.67c1.11-5.43,1.21-11.11,1.45-16.63c0.3-6.71,0.39-13.43,0.28-20.14c-0.03-1.62,0.03-3.3-0.12-4.91
			c-0.1-1.06-0.69-1.4-1.74-1.26c-0.62,0.09-2.01,0.39-2.01,1.24c0,1.02,1.72,0.48,2.22,0.28c0.31-0.12,1.15-0.43,0.85-0.87
			c-0.26-0.39-1.59,0.03-1.87,0.14c-0.04,0.02-0.08,0.03-0.13,0.05c0.62-0.05,1.25-0.09,1.87-0.14c-0.06-0.06-0.07-0.12-0.03-0.2
			c-0.53,0.22-1.05,0.44-1.58,0.66c0.05-0.01,0.1-0.01,0.15-0.02c-0.37-0.02-0.74-0.05-1.1-0.07c0.73,0.34,0.49,1.77,0.5,2.43
			c0.04,1.31,0.06,2.62,0.08,3.93c0.04,2.46,0.05,4.91,0.03,7.37c-0.03,4.83-0.17,9.66-0.42,14.49c-0.24,4.7-0.37,9.51-1.31,14.14
			c-0.38,1.85-0.8,4.54-2.14,5.99c-1.16,1.27-4.27-0.01-5.62-0.59c-7.98-3.44-11.41-12.1-13.69-19.87
			c-1.29-4.4-2.54-8.98-2.27-13.61c0.27-4.58,2.42-8.58,4.84-12.37c1.23-1.93,2.43-3.96,4.08-5.57c0.78-0.76,1.7-1.47,2.79-1.69
			c1.33-0.27,2.75-0.16,4.1-0.15c5.52,0.02,11.03,0.04,16.55,0.06c0.65,0,1.54-0.11,2.05-0.55
			C260.47,499.84,260.57,499.47,259.92,499.47L259.92,499.47z"/>
	</g>
</g>
<path class="st2" d="M247.38,407.54"/>
<g>
	<path class="st3" d="M362.5,592.12c-1.3,1.54-1.92,3.57-2.08,5.58s0.09,4.03,0.36,6.02c0.15,1.08,0.46,2.37,1.5,2.72
		c0.14,0.04,0.3,0.07,0.41-0.02c0.08-0.06,0.13-0.15,0.16-0.25c0.55-1.43,0.17-3.03,0.22-4.56c0.05-1.66,0.62-3.25,0.81-4.9
		c0.19-1.65-0.11-3.51-1.41-4.54"/>
	<g>
		<path d="M361.27,591.65c-1.48,1.81-2.2,4.1-2.35,6.41c-0.08,1.29,0,2.58,0.14,3.86c0.11,1.11,0.18,2.31,0.52,3.39
			c0.31,0.96,0.89,1.8,1.87,2.15c0.71,0.25,1.61,0.15,2.21-0.32c0.52-0.41,0.7-1.04,0.84-1.66c0.26-1.22,0.03-2.47,0.04-3.7
			c0.01-1.23,0.3-2.41,0.55-3.61c0.5-2.42,0.53-5.13-1.51-6.87c-1.04-0.89-3.53,0.62-2.22,1.73c1.65,1.4,1.06,4.02,0.67,5.83
			c-0.25,1.2-0.47,2.38-0.43,3.61c0.02,0.6,0.08,1.2,0.08,1.8c0,0.43,0.03,1.39-0.22,1.67c0.31-0.19,0.63-0.39,0.94-0.58
			c-0.07,0.02-0.13,0.04-0.2,0.06c0.26-0.02,0.51-0.03,0.77-0.05c-0.55-0.1-0.69-1.62-0.75-2.04c-0.2-1.35-0.37-2.72-0.39-4.08
			c-0.04-2.35,0.36-4.78,1.88-6.66c0.44-0.54,0.24-1.24-0.4-1.49C362.64,590.83,361.73,591.08,361.27,591.65L361.27,591.65z"/>
	</g>
</g>
<g>
	<path d="M243.95,483.48c-3.08-1.1-6.26-1.94-9.48-2.51c0.38,3.76,2.81,6.96,5.2,9.88c4.15,5.05,8.52,9.96,13.66,13.98
		c1.6,1.25,4.05,2.37,5.46,0.91c0.49-0.51,0.7-1.23,0.8-1.93c0.62-4.36-2.44-8.43-5.96-11.07s-7.67-4.43-10.88-7.45
		c-3.22-3.03-5.27-7.11-8.26-10.37c-0.29,3.32,1.22,6.74,3.88,8.76"/>
	<g>
		<path d="M244.78,482.49c-3.2-1.13-6.48-1.99-9.82-2.59c-0.88-0.16-2.06,0.48-1.94,1.47c0.68,5.61,5.23,10.16,8.78,14.22
			c1.92,2.2,3.93,4.32,6.05,6.33c1.93,1.83,4.01,3.93,6.47,5.04c2.07,0.93,4.78,0.79,6.09-1.3c1.26-2.02,0.81-4.97-0.08-7.04
			c-2.23-5.15-7.15-7.81-11.68-10.64c-2.7-1.69-5.07-3.58-7.05-6.09c-1.97-2.5-3.64-5.23-5.77-7.61c-0.7-0.78-2.71-0.47-2.79,0.75
			c-0.25,3.71,1.33,7.2,4.24,9.51c1.04,0.82,3.55-0.65,2.23-1.7c-2.43-1.93-3.73-4.92-3.52-8.01c-0.93,0.25-1.86,0.5-2.79,0.75
			c3.22,3.58,5.43,7.97,9.1,11.15c3.74,3.24,8.58,5,12.12,8.48c1.58,1.55,2.95,3.47,3.53,5.63c0.28,1.06,0.38,2.18,0.17,3.27
			c-0.27,1.42-0.94,1.41-2.12,0.86c-2.09-0.97-3.91-2.89-5.58-4.44c-1.93-1.81-3.75-3.74-5.51-5.72c-1.89-2.13-3.76-4.3-5.48-6.58
			c-1.73-2.29-3.15-4.74-3.5-7.63c-0.65,0.49-1.3,0.98-1.94,1.47c3.12,0.56,6.16,1.37,9.15,2.43
			C244.39,484.93,246.51,483.1,244.78,482.49L244.78,482.49z"/>
	</g>
</g>
<g>
	<path d="M262.09,495.17c-1.4,0.33-3.2-0.52-4.13,0.58c-0.32,0.38-0.41,0.9-0.48,1.39c-0.69,4.98,0.14,10.16,2.34,14.69
		c0.84,1.73,1.94,3.43,3.58,4.45c1.64,1.02,3.92,1.2,5.43,0c1.1-0.88,1.61-2.3,1.85-3.68c0.78-4.5-0.81-9.17-3.41-12.92
		c-3.05-4.4-7.51-7.81-12.56-9.6"/>
	<g>
		<path d="M261.82,494.19c-1,0.17-2.04-0.19-3.06,0.03c-1.07,0.23-2,0.83-2.46,1.85c-0.45,1.01-0.45,2.3-0.5,3.39
			c-0.07,1.42-0.02,2.85,0.13,4.26c0.28,2.65,0.98,5.25,2.06,7.69c0.94,2.12,2.14,4.28,4.12,5.59c1.86,1.23,4.36,1.55,6.42,0.65
			c2.14-0.94,3.21-2.96,3.6-5.17c0.87-4.92-1.03-9.98-3.89-13.92c-3.17-4.35-7.66-7.62-12.7-9.46c-1.22-0.44-3.4,1.31-1.68,1.93
			c7.12,2.59,13.51,8.65,15.18,16.21c0.55,2.51,0.97,9.93-3.48,8.67c-3.71-1.05-5.37-6.4-6.16-9.68c-0.57-2.36-0.79-4.79-0.65-7.21
			c0.04-0.63-0.02-2.62,0.61-2.79c0.4-0.11,0.97,0.06,1.39,0.07c0.55,0.01,1.06-0.05,1.6-0.15c0.57-0.1,1.36-0.71,1.19-1.37
			C263.34,494.05,262.39,494.09,261.82,494.19L261.82,494.19z"/>
	</g>
</g>
<g>
	<path d="M276.13,488.61"/>
	<g>
		<path d="M275.57,489.47c0.6,0,1.62-0.19,1.91-0.81c0.28-0.59-0.24-0.91-0.8-0.91c-0.6,0-1.62,0.19-1.91,0.81
			C274.49,489.15,275.01,489.47,275.57,489.47L275.57,489.47z"/>
	</g>
</g>
<g>
	<path d="M276.32,488.61"/>
	<g>
		<path d="M275.78,489.52c0.61,0,1.61-0.18,1.9-0.83c0.27-0.59-0.23-0.99-0.82-0.99c-0.61,0-1.61,0.18-1.9,0.83
			C274.69,489.13,275.19,489.52,275.78,489.52L275.78,489.52z"/>
	</g>
</g>
<g>
	<path d="M276.32,488.61"/>
	<g>
		<path d="M276.18,489.63c1.62,0,2.25-2.04,0.28-2.04C274.83,487.6,274.21,489.63,276.18,489.63L276.18,489.63z"/>
	</g>
</g>
<g>
	<path d="M276.32,488.61"/>
	<g>
		<path d="M276.21,489.74c1.7,0,2.19-2.24,0.22-2.24C274.73,487.49,274.24,489.74,276.21,489.74L276.21,489.74z"/>
	</g>
</g>
<g>
	<path d="M273.15,487.77c2.02,0.11,4.03,0.22,6.05,0.33"/>
	<g>
		<path d="M272.66,488.88c2.02,0.11,4.03,0.22,6.05,0.33c0.4,0.02,0.78-0.01,1.14-0.19c0.28-0.14,0.62-0.41,0.74-0.72
			c0.24-0.64-0.22-1.27-0.91-1.3c-2.02-0.11-4.03-0.22-6.05-0.33c-0.4-0.02-0.78,0.01-1.14,0.19c-0.28,0.14-0.62,0.41-0.74,0.72
			C271.52,488.21,271.98,488.84,272.66,488.88L272.66,488.88z"/>
	</g>
</g>
<g>
	<path d="M278.29,491.07c0.14,0.09,0.1,0.33-0.04,0.43c-0.13,0.1-0.32,0.11-0.48,0.11c-0.54,0-1.08,0.01-1.62,0.01
		c-0.31,0-0.63,0-0.92-0.09c-0.33-0.11-0.61-0.33-0.89-0.55c-0.72-0.58-1.45-1.16-2.17-1.75c-0.45-0.36-0.93-0.77-1.02-1.34
		c-0.08-0.48,0.15-0.97,0.5-1.31c0.34-0.35,0.78-0.57,1.22-0.78c1.02-0.5,2.26-0.94,3.24-0.38c0.36,0.21,0.64,0.54,0.91,0.87
		c0.42,0.52,0.82,1.05,1.19,1.59c0.72,1.04,1.4,2.31,1.04,3.52"/>
	<g>
		<path d="M276.96,491.69c-0.09-0.21-0.06-0.4,0.09-0.57c0.19-0.14,0.38-0.27,0.58-0.41c0.03-0.02,0.55-0.06,0.35-0.1
			c-0.09-0.02-0.19,0-0.29,0c-0.15,0-0.3,0-0.44,0c-0.17,0-0.34,0-0.52,0c-0.07,0-0.15,0-0.22,0c-0.09,0-0.33-0.01-0.12,0
			c-0.13-0.01-0.27-0.01-0.4-0.03c0.2,0.04,0.03-0.01-0.06-0.07c-0.28-0.17-0.53-0.39-0.78-0.6c-0.56-0.45-1.13-0.91-1.69-1.36
			c-0.34-0.27-0.85-0.63-0.88-1.06c0-0.01,0.03-0.22,0.03-0.21c-0.02,0.06,0.16-0.31,0.06-0.16c0.03-0.04,0.24-0.26,0.1-0.14
			c0.05-0.04,0.45-0.31,0.23-0.18c0.26-0.16,0.55-0.29,0.83-0.41c0.12-0.05,0.25-0.11,0.37-0.16c-0.02,0.01-0.23,0.07-0.06,0.02
			c0.11-0.03,0.22-0.06,0.32-0.09c0.28-0.08-0.17,0.02,0.12-0.02c0.26-0.04,0.08-0.01,0.01-0.02c0.06,0,0.13,0.01,0.19,0.01
			c0.15,0.02,0,0-0.02-0.01c0.07,0.02,0.17,0.04,0.24,0.08c-0.13-0.06,0.2,0.15,0.15,0.11c0.48,0.39,0.85,0.99,1.21,1.47
			c0.78,1.05,1.77,2.33,1.4,3.71c-0.18,0.68,0.85,0.92,1.32,0.86c0.68-0.08,1.42-0.41,1.61-1.12c0.5-1.85-0.84-3.62-1.89-5
			c-0.58-0.76-1.17-1.53-2.09-1.89c-0.98-0.38-2.14-0.24-3.12,0.08c-1.61,0.53-4.35,1.75-3.9,3.88c0.19,0.89,1.03,1.45,1.69,1.98
			c0.73,0.59,1.45,1.26,2.23,1.77c1.02,0.67,2.24,0.52,3.4,0.52c0.76,0,1.52-0.03,2.17-0.5c0.48-0.35,0.93-1.12,0.42-1.65
			c-0.49-0.51-1.36-0.47-1.95-0.17C277.26,490.49,276.45,491.16,276.96,491.69L276.96,491.69z"/>
	</g>
</g>
<g>
	<g>
		<path d="M242.63,477.02c-0.73-1.36-1.62-2.79-3.2-3.24c-1.33-0.38-2.91-0.12-4,0.73c-1.36,1.06-1.13,2.84-1.17,4.39
			c-0.05,1.9-0.07,3.81,0.01,5.71c0.31,7.72,3.23,14.53,7.69,20.75c1.04,1.45,2.14,2.85,3.27,4.22c1.05,1.27,2.2,2.59,3.72,3.3
			c1.43,0.66,3.08,0.65,4.5-0.05c1.43-0.7,2.28-2.03,3.07-3.35c1.88-3.1,3.84-6.47,4.02-10.18c0.15-3.01-0.81-6.03-3.25-7.93
			c-1.56-1.21-3.45-1.9-5.15-2.88c-1.69-0.98-3.29-2.12-4.76-3.41c-2.96-2.6-5.43-5.74-7.23-9.25c-0.56-1.09-3.39-0.19-2.9,0.78
			c2.55,4.98,6.27,9.23,10.93,12.34c1.1,0.73,2.25,1.39,3.43,1.98c1.37,0.69,2.83,1.32,3.92,2.44c1.9,1.95,2.36,4.91,1.95,7.51
			c-0.51,3.22-2.25,6.09-3.93,8.82c-0.31,0.5-0.63,1.1-1.07,1.5c-0.55,0.5-0.96,0.34-1.6,0.01c-1.35-0.7-2.32-2-3.26-3.14
			c-3.89-4.73-7.41-9.95-9.18-15.87c-1.08-3.64-1.36-7.42-1.33-11.21c0.01-1.65-0.15-3.53,0.18-5.15c0.04-0.18,0.31-0.43,0.12-0.38
			c0.36-0.1,0.9,0.44,1.1,0.64c0.61,0.6,1.02,1.39,1.42,2.13C240.46,479.14,243.26,478.2,242.63,477.02L242.63,477.02z"/>
	</g>
</g>
<g>
	<g>
		<path d="M223.55,426.98c-0.91-0.57-2.2-0.28-3.03,0.34c-0.97,0.72-1.13,2.05-1.32,3.15c-0.35,2.01-0.68,4.66,0.9,6.26
			c1.4,1.41,3.72,1.56,5.54,1.1c2.08-0.53,3.85-1.84,4.86-3.74c2.09-3.95-0.15-8.5-3.6-10.81c-2.51-1.67-11.01-5.18-11.4,0.12
			c-0.15,1.98-0.11,4.19,1.66,5.47c1.87,1.36,4.46,2.09,6.66,1.16c0.78-0.33,1.65-0.9,1.93-1.76c0.37-1.14-0.47-2.18-1.26-2.89
			c-1.65-1.48-3.95-2.48-6.18-2.5c-2.33-0.02-4.38,1.1-5.37,3.23c-1.04,2.23-1.13,4.94-1.27,7.35c-0.11,1.95-0.44,4.25,0.42,6.08
			c0.95,2.01,3.11,2.45,5.13,1.96c4.75-1.14,8.04-6.61,8.12-11.29c0.04-2.02-0.59-4.22-2.34-5.39c-1.06-0.71-2.55-0.68-3.56,0.16
			c-0.91,0.76-0.83,2.37-0.76,3.44c0.05,0.79,2.96,0.23,2.9-0.78c-0.03-0.5-0.03-0.99,0.04-1.48c0.03-0.22,0.07-0.44,0.13-0.65
			c0.12-0.24,0.09-0.27-0.11-0.11c-0.49,0.13-0.98,0.26-1.46,0.39c0.27,0,0.92,0.77,1.1,1c0.4,0.49,0.66,1.07,0.84,1.68
			c0.37,1.21,0.41,2.51,0.2,3.76c-0.47,2.76-2.02,6-4.42,7.58c-1.13,0.74-2.24,0.25-2.85-0.93c-0.58-1.1-0.62-2.45-0.59-3.67
			c0.04-1.75,0.15-3.51,0.36-5.25c0.18-1.46,0.38-3.05,1.06-4.38c0.19-0.36,0.53-1.05,0.95-1.21c0.61-0.23,1.81,0.29,2.38,0.51
			c1.26,0.5,3.1,1.52,3.61,2.89c0.14,0.37,0.14,0.7-0.01,1.06c-0.05,0.11-0.13,0.21-0.23,0.29c0.23-0.18,0.37,0.02-0.09-0.16
			c-0.75-0.29-1.51-0.51-2.21-0.91c-1.34-0.76-1.84-2.03-1.92-3.51c-0.03-0.68-0.01-1.39,0.08-2.07c0.02-0.13,0.2-0.6,0.17-0.7
			c-0.28,0.11-0.57,0.22-0.85,0.33c0.11,0.02,0.21,0.03,0.32,0.05c0.2,0.06,0.43,0.07,0.63,0.11c1.59,0.31,3.16,0.8,4.59,1.56
			c2.57,1.37,4.69,3.82,5.08,6.77c0.29,2.19-1.08,6.61-4.03,5.92c-1.68-0.39-2.41-1.89-2.5-3.49c-0.05-0.93,0.06-1.87,0.21-2.79
			c0.07-0.45,0.17-0.9,0.28-1.35c0.04-0.17,0.08-0.34,0.13-0.5c0.1-0.33,0.39-0.67-0.07-0.47c-0.38,0.08-0.76,0.16-1.13,0.24
			c0.06,0,0.12,0,0.18,0c-0.26-0.07-0.51-0.13-0.77-0.2c0.06,0.04,0.11,0.07,0.17,0.11c0.55,0.35,1.33,0.19,1.9-0.04
			C222.94,427.94,224.08,427.31,223.55,426.98L223.55,426.98z"/>
	</g>
</g>
<g>
	<g>
		<path d="M216.34,426.9c1.34-0.16,1.81,2.02,1.83,2.95c0.03,1.21-0.33,2.39-0.94,3.42c-0.93,1.59-3.14,3.86-5.2,3.17
			c-1.36-0.45-1.53-1.83-1.6-3.08c-0.09-1.57-0.12-3.15,0.02-4.72c0.24-2.78,1.13-5.72,3.15-7.74c0.9-0.9,1.99-1.64,3.3-1.6
			c1.57,0.05,3.17,0.88,3.86,2.33c0.33,0.7,3.12-0.3,2.9-0.78c-1.71-3.57-6.73-3.02-9.73-1.72c-3.47,1.51-5.49,4.86-6.14,8.48
			c-0.37,2.1-0.37,4.23-0.27,6.35c0.09,1.73,0.49,3.21,2.36,3.65c3.26,0.77,7.31-1.22,9.37-3.69c1.11-1.33,1.83-2.97,1.82-4.73
			c-0.01-2.09-1.26-3.72-3.47-3.45c-0.56,0.07-1.58,0.19-1.94,0.69C215.31,426.91,215.96,426.94,216.34,426.9L216.34,426.9z"/>
	</g>
</g>
<g>
	<g>
		<path d="M222.16,429.8c-0.25-1.57-2.16-1.78-3.43-1.55c-1.8,0.33-3.11,1.4-4.06,2.92c-1.67,2.68-2.91,7.21,0.16,9.36
			c2.65,1.86,6.84,2.33,9.59,0.45c1.36-0.93,1.95-2.43,2.24-4c0.33-1.78,0.5-3.64,0.32-5.44c-0.36-3.66-2.63-7.03-6.44-7.61
			c-0.64-0.1-1.54,0.16-2.05,0.55c-0.46,0.35-0.38,0.64,0.19,0.72c2.21,0.33,3.95,2.28,4.74,4.27c1.03,2.6,0.87,5.66,0.29,8.35
			c-0.22,1.02-0.58,2.36-1.51,2.97c-0.23,0.15-0.66,0.1-1.09,0.04c-0.58-0.08-1.15-0.24-1.71-0.43c-1.07-0.36-2.17-0.92-2.86-1.84
			c-0.84-1.13-0.78-2.67-0.53-3.99c0.27-1.42,0.81-2.8,1.59-4.01c0.19-0.3,0.41-0.58,0.65-0.84c0.1-0.1,0.3-0.22,0.36-0.33
			c0.18-0.11,0.11-0.12-0.19-0.02c-0.31,0.02-0.38,0.04-0.22,0.07c0.06,0.09,0.54,0.23,0.67,0.35c0.24,0.22,0.33,0.47,0.38,0.78
			C219.37,431.25,222.29,430.61,222.16,429.8L222.16,429.8z"/>
	</g>
</g>
<g>
	<g>
		<path d="M221.91,429.73c0.01-0.51,0.02-1.02,0.02-1.53c-0.97,0.17-1.94,0.34-2.92,0.5c0.59,1.23,1.17,2.46,1.76,3.69
			c0.04,0.14,0.11,0.26,0.23,0.34c0.1,0.11,0.23,0.19,0.38,0.23c0.33,0.12,0.77,0.11,1.1,0.01c0.35-0.1,0.72-0.27,0.95-0.56
			c0.16-0.2,0.37-0.54,0.24-0.8c-0.59-1.23-1.17-2.46-1.76-3.69c-0.04-0.14-0.11-0.26-0.23-0.34c-0.1-0.11-0.23-0.19-0.38-0.23
			c-0.3-0.09-0.6-0.1-0.9-0.05c-0.31,0.05-0.64,0.16-0.89,0.36c-0.22,0.18-0.5,0.45-0.51,0.76c-0.01,0.51-0.02,1.02-0.02,1.53
			c0,0.3,0.09,0.54,0.35,0.71c0.26,0.18,0.67,0.25,0.99,0.22c0.38-0.04,0.79-0.15,1.09-0.4
			C221.62,430.31,221.9,430.04,221.91,429.73L221.91,429.73z"/>
	</g>
</g>
<g>
	<path class="st1" d="M236.44,563.6c4.51,21.45-16.2,40.33-18.16,62.17c25.05-14.96,55.48-17.6,84.65-17.4
		c11.45,0.08,22.97,0.54,34.14,3.07c14.11,3.19,27.45,9.7,38.65,18.84c-26.59-57.51-47.65-117.58-62.79-179.1
		c-0.42-1.7-0.89-3.5-2.18-4.69c-1.14-1.05-2.71-1.44-4.19-1.9c-7.18-2.25-13.47-7.22-17.31-13.69c3.31,8.08,6.64,16.24,7.98,24.87
		c1.34,8.62,0.52,17.88-4.04,25.32c-2.87,4.68-7.44,8.62-12.87,9.44s-11.56-2.22-13.11-7.49c1.53,4.95,0.93,10.65-2.13,14.82
		c-3.06,4.17-8.71,6.48-13.69,5.05c-5.86-1.68-9.35-7.56-11.89-13.1c-5.39-11.73-9.22-24.18-11.37-36.9
		c-0.82-4.86-1.66-10.26-5.51-13.34c-2.35-1.89-6.1-3.98-4.84-6.73c-0.46,14.91,3.64,29.53,6.8,44.12
		c5.31,24.5,8.07,49.55,8.22,74.62"/>
	<g>
		<path d="M234.99,563.99c1.7,8.31-0.52,16.53-3.76,24.18c-3.39,8-7.78,15.56-10.9,23.68c-1.74,4.52-3.07,9.2-3.52,14.03
			c-0.1,1.05,1.47,1.11,2.11,0.74c17.95-10.67,38.66-14.99,59.28-16.49c10.63-0.77,21.33-0.9,31.98-0.58
			c11.4,0.34,22.82,1.47,33.72,4.94c11.18,3.56,21.6,9.22,30.71,16.62c0.68,0.55,3.09-0.1,2.57-1.22
			c-12.6-27.26-23.96-55.09-34.04-83.38c-10.02-28.14-18.78-56.73-26.22-85.66c-1.01-3.93-1.75-8.04-3.04-11.89
			c-0.5-1.5-1.27-2.88-2.61-3.78c-1.38-0.93-3.05-1.28-4.61-1.81c-6.73-2.3-12.42-7.04-16.08-13.11c-0.59-0.98-3.25-0.14-2.78,1.03
			c4.46,10.9,9.14,22.31,8.48,34.32c-0.3,5.43-1.68,10.83-4.58,15.47c-2.49,3.99-6.47,7.61-11.25,8.38
			c-4.86,0.79-10.28-2.02-11.79-6.83c-0.41-1.32-3.29-0.54-2.9,0.78c1.94,6.55,0.17,14.64-6.45,17.78c-2.85,1.35-6.1,1.42-8.94,0.02
			c-2.92-1.44-5.07-4.07-6.75-6.78c-1.9-3.06-3.33-6.41-4.72-9.73c-1.59-3.8-3.02-7.67-4.28-11.6c-2.45-7.61-4.02-15.34-5.48-23.19
			c-0.63-3.42-1.54-7.06-3.88-9.75c-1.16-1.33-2.64-2.26-4.01-3.36c-1.11-0.89-2.72-2.23-2.09-3.83c-0.95-0.02-1.9-0.03-2.85-0.05
			c-0.43,15.61,3.91,30.7,7.13,45.83c3.25,15.29,5.51,30.78,6.76,46.36c0.71,8.83,1.08,17.69,1.13,26.55
			c0.01,1.51,2.94,1.07,2.94-0.22c-0.1-15.72-1.2-31.43-3.32-47.01c-1.05-7.74-2.36-15.45-3.91-23.11
			c-1.54-7.59-3.42-15.11-4.97-22.69c-1.75-8.54-3.05-17.19-2.81-25.93c0.04-1.44-2.45-1.06-2.85-0.05
			c-1.29,3.26,2.07,5.42,4.32,7.11c3.01,2.27,4.34,5.47,5.15,9.07c0.91,4.05,1.44,8.17,2.36,12.23c0.99,4.4,2.18,8.76,3.57,13.05
			c1.39,4.29,2.98,8.52,4.75,12.66c1.5,3.5,3.06,7.04,5.23,10.18c1.96,2.82,4.51,5.31,7.75,6.57c3.25,1.26,6.85,1.04,10.07-0.21
			c8.27-3.2,11.48-12.55,9.07-20.68c-0.97,0.26-1.93,0.52-2.9,0.78c1.5,4.77,6.18,7.75,11.02,8.22c5.34,0.52,10.4-2.01,14.12-5.7
			c8.74-8.67,9.6-22.38,7.18-33.78c-1.59-7.49-4.5-14.6-7.39-21.65c-0.93,0.34-1.85,0.68-2.78,1.03c3.19,5.3,7.91,9.57,13.47,12.29
			c1.28,0.63,2.6,1.17,3.96,1.61c1.54,0.5,3.33,0.81,4.45,2.08c0.98,1.12,1.32,2.63,1.67,4.04c0.46,1.83,0.91,3.66,1.37,5.49
			c3.65,14.48,7.63,28.88,11.94,43.19c8.56,28.45,18.4,56.52,29.48,84.1c6.27,15.61,12.95,31.06,20,46.33
			c0.86-0.41,1.71-0.81,2.57-1.22c-8.25-6.7-17.62-12.01-27.61-15.65c-10.83-3.94-22.23-5.62-33.7-6.18
			c-11.04-0.54-22.16-0.47-33.19,0.15c-10.59,0.6-21.18,1.86-31.53,4.23c-11.61,2.67-22.91,6.82-33.17,12.92
			c0.7,0.25,1.41,0.49,2.11,0.74c1.66-17.61,14.43-31.54,18.01-48.6c0.96-4.57,1.07-9.26,0.14-13.84
			C237.62,561.88,234.71,562.62,234.99,563.99L234.99,563.99z"/>
	</g>
</g>
<g>
	<path class="st4" d="M303.18,471.08c0.17,0.95-0.04,1.95-0.57,2.76c0.4-4.93,4.37-8.86,5.63-13.64c0.12-0.47,0.15-1.11-0.3-1.3
		c-0.46-0.2-0.92,0.3-1.16,0.74c-1.24,2.21-1.94,4.71-2.03,7.23c1.33-2.64,2.61-5.31,3.84-8c-0.38,0.05-0.75,0.19-1.06,0.41
		c0.09-0.68,0.26-1.34,0.52-1.97"/>
	<g>
		<path d="M301.73,471.47c0.13,0.95-0.04,1.82-0.54,2.65c0.96-0.22,1.92-0.44,2.87-0.66c0.46-4.87,4.16-8.57,5.5-13.16
			c0.22-0.76,0.43-1.81-0.62-1.97c-1.18-0.17-2.78,0.42-3.47,1.39c-1.47,2.07-2.06,5.05-2.17,7.54c-0.02,0.46,2.65-0.22,2.87-0.66
			c1.33-2.64,2.61-5.31,3.84-8c0.2-0.43-1.05-0.21-1.14-0.19c-0.86,0.16-1.69,0.42-2.44,0.88c0.85-0.13,1.7-0.26,2.54-0.4
			c0.1-0.65,0.26-1.25,0.5-1.86c0.17-0.44-0.98-0.22-1.14-0.19c-0.4,0.08-1.53,0.27-1.71,0.74c-0.27,0.68-0.44,1.37-0.55,2.09
			c-0.07,0.47,2.34-0.27,2.54-0.4c-0.11,0.02-0.22,0.04-0.32,0.07c-0.38-0.06-0.76-0.13-1.14-0.19c-1.23,2.69-2.5,5.36-3.84,8
			c0.96-0.22,1.92-0.44,2.87-0.66c0.06-1.42,0.29-2.82,0.73-4.18c0.21-0.65,0.46-1.28,0.74-1.9c0.12-0.26,0.25-0.53,0.39-0.78
			c0.08-0.15,0.16-0.3,0.26-0.45c0.23-0.22,0.25-0.27,0.05-0.16c-0.49,0.13-0.98,0.26-1.46,0.39c-0.26,0.04-0.04,0.43-0.03,0.62
			c0.01,0.32-0.1,0.64-0.19,0.95c-0.2,0.65-0.45,1.29-0.72,1.92c-0.57,1.3-1.28,2.55-1.96,3.79c-1.31,2.38-2.57,4.81-2.83,7.56
			c-0.04,0.45,2.63-0.25,2.87-0.66c0.53-0.88,0.73-1.85,0.59-2.87C304.57,470.23,301.64,470.81,301.73,471.47L301.73,471.47z"/>
	</g>
</g>
<g>
	<path class="st4" d="M302.93,471.35"/>
	<g>
		<path d="M302.81,472.43c1.67,0,2.21-2.16,0.25-2.16C301.39,470.27,300.84,472.43,302.81,472.43L302.81,472.43z"/>
	</g>
</g>
<g>
	<path class="st4" d="M295,481.49c-0.01-1.66-0.01-3.31-0.02-4.97c0-0.58-0.03-1.22-0.45-1.61c-0.14-0.13-0.32-0.24-0.34-0.42
		c-0.02-0.11,0.03-0.22,0.09-0.32c0.16-0.3,0.44-0.6,0.77-0.56c0.26,0.04,0.44,0.27,0.59,0.49c0.46,0.72,0.84,1.5,1.11,2.32
		c0.27,0.82,0.44,1.71,0.2,2.54s-0.99,1.56-1.85,1.54c-0.18,0-0.38-0.05-0.48-0.21c-0.05-0.08-0.06-0.17-0.07-0.26
		c-0.08-0.8-0.01-1.61,0.2-2.39"/>
	<g>
		<path d="M296.46,481.35c-0.01-1.5-0.01-3-0.02-4.5c0-0.61,0.05-1.29-0.16-1.87c-0.11-0.3-0.27-0.55-0.51-0.77
			c-0.15-0.15-0.22-0.21-0.13,0.07c0.07-0.12,0.08-0.13,0.02-0.04c-0.15,0.12-0.31,0.2-0.49,0.27c-0.25,0.02-0.51,0.05-0.76,0.07
			c-0.1-0.04-0.19-0.07-0.29-0.11c-0.04-0.05-0.04-0.04,0.01,0.01c0.02,0.06,0.1,0.13,0.14,0.19c0.12,0.17,0.22,0.36,0.33,0.54
			c0.19,0.34,0.36,0.7,0.5,1.06c0.31,0.78,0.59,1.64,0.46,2.48c-0.01,0.09-0.03,0.19-0.06,0.28c-0.06,0.21,0.08-0.15-0.05,0.13
			c-0.03,0.07-0.07,0.13-0.11,0.2c-0.09,0.17,0.02,0-0.05,0.08c-0.05,0.06-0.1,0.11-0.15,0.17c-0.1,0.12,0.14-0.14-0.05,0.03
			c0.08-0.07,0.19-0.09,0.03-0.03c0.06-0.02,0.45-0.09,0.29-0.09c-0.12,0.01-0.07,0.01,0.13,0.02c0.13-0.02,0.24,0.02,0.33,0.13
			c0.26,0.2,0.12,0,0.11-0.18c-0.01-0.19-0.01-0.38,0-0.57c0.02-0.48,0.1-0.95,0.22-1.41c0.17-0.68-0.85-0.89-1.31-0.84
			c-0.66,0.08-1.44,0.41-1.61,1.11c-0.21,0.84-0.35,1.85-0.18,2.71c0.23,1.16,1.84,1.1,2.71,0.85c0.94-0.27,1.77-0.88,2.27-1.73
			c0.43-0.74,0.49-1.62,0.38-2.45c-0.11-0.8-0.41-1.59-0.76-2.32c-0.35-0.74-0.76-1.72-1.56-2.05c-1.18-0.48-2.66,0.16-3.24,1.26
			c-0.21,0.4-0.26,0.87,0.05,1.25c0.24,0.29,0.43,0.37,0.5,0.68c0.09,0.38,0.07,0.67,0.07,1.06c0,0.49,0,0.98,0.01,1.47
			c0,1.03,0.01,2.07,0.01,3.1c0,0.68,0.72,0.91,1.31,0.84C295.35,482.4,296.46,482.04,296.46,481.35L296.46,481.35z"/>
	</g>
</g>
<g>
	<path class="st4" d="M294.99,481.58"/>
	<g>
		<path d="M294.86,482.63c1.65,0,2.23-2.11,0.26-2.11C293.47,480.52,292.89,482.63,294.86,482.63L294.86,482.63z"/>
	</g>
</g>
<g>
	<path class="st4" d="M294.99,481.58"/>
	<g>
		<path d="M294.87,482.65c1.67,0,2.21-2.15,0.25-2.15C293.45,480.5,292.9,482.65,294.87,482.65L294.87,482.65z"/>
	</g>
</g>
<g>
	<path class="st4" d="M294.99,481.85"/>
	<g>
		<path d="M294.43,482.68c0.59,0,1.62-0.19,1.91-0.79c0.28-0.58-0.24-0.87-0.79-0.87c-0.59,0-1.62,0.19-1.91,0.79
			C293.36,482.4,293.88,482.68,294.43,482.68L294.43,482.68z"/>
	</g>
</g>
<g>
	<path class="st4" d="M294.99,481.85"/>
	<g>
		<path d="M294.85,482.87c1.62,0,2.25-2.03,0.28-2.03C293.51,480.83,292.88,482.87,294.85,482.87L294.85,482.87z"/>
	</g>
</g>
<g>
	<path class="st4" d="M295.52,473.54c0.09,2.35,0.03,4.71-0.17,7.06c-0.04,0.48-0.11,1-0.44,1.34"/>
	<g>
		<path d="M294.06,473.67c0.05,1.45,0.05,2.9,0,4.35c-0.03,0.71-0.07,1.42-0.12,2.13c-0.02,0.31-0.04,0.63-0.08,0.94
			c-0.02,0.12-0.05,0.24-0.07,0.36c0.02-0.07,0.01-0.05-0.04,0.07c0.08-0.08,0.07-0.07-0.03,0.04c-0.42,0.48-0.28,1.13,0.35,1.32
			c0.68,0.2,1.57-0.01,2.05-0.55c0.47-0.53,0.64-1.16,0.7-1.85c0.07-0.79,0.12-1.58,0.15-2.38c0.07-1.56,0.07-3.12,0.02-4.68
			c-0.02-0.69-0.7-0.95-1.32-0.88C295.16,472.6,294.03,472.97,294.06,473.67L294.06,473.67z"/>
	</g>
</g>
<g>
	<path class="st4" d="M294.94,473.64c0.38,1.49-0.33,3-0.74,4.48c-0.11,0.39-0.19,0.8-0.06,1.18c0.13,0.38,0.56,0.68,0.94,0.53
		c0.33-0.13,0.47-0.53,0.54-0.88c0.25-1.11,0.37-2.25,0.47-3.39c-0.68,1.74-1.37,3.48-2.05,5.22c0.46-0.53,0.58-1.27,0.69-1.97
		c0.36-2.48,0.73-5,0.38-7.48"/>
	<g>
		<path d="M293.49,474.03c0.28,1.22-0.1,2.37-0.47,3.53c-0.28,0.89-0.87,2.42,0.4,2.82c0.77,0.24,1.77-0.03,2.48-0.36
			c0.53-0.25,0.93-0.57,1.1-1.13c0.35-1.18,0.43-2.48,0.54-3.7c0.04-0.47-2.66,0.1-2.88,0.65c-0.68,1.74-1.37,3.48-2.05,5.22
			c-0.19,0.47,0.97,0.29,1.15,0.25c0.58-0.11,1.31-0.29,1.7-0.78c0.45-0.56,0.58-1.25,0.68-1.94c0.13-0.84,0.25-1.68,0.35-2.52
			c0.2-1.7,0.28-3.41,0.05-5.11c-0.06-0.42-1.35-0.1-1.56-0.04c-0.29,0.08-1.4,0.36-1.33,0.81c0.22,1.64,0.15,3.29-0.03,4.93
			c-0.09,0.79-0.2,1.58-0.32,2.37c-0.11,0.72-0.22,1.44-0.69,2.02c0.95-0.17,1.9-0.35,2.86-0.52c0.68-1.74,1.37-3.48,2.05-5.22
			c-0.96,0.22-1.92,0.43-2.88,0.65c-0.07,0.75-0.14,1.5-0.26,2.24c-0.07,0.47-0.1,1.38-0.52,1.71c0.16-0.1,0.32-0.19,0.48-0.29
			c0.38-0.1,0.75-0.2,1.13-0.3c0.19,0,0.37,0.01,0.56,0.01c-1.1-0.16-0.18-2.22,0-2.79c0.33-1.06,0.61-2.17,0.35-3.28
			C296.25,472.66,293.34,473.38,293.49,474.03L293.49,474.03z"/>
	</g>
</g>
<g>
	<path class="st4" d="M294.86,480.48c0.1-1.15,0.31-2.29,0.62-3.41c0.17-0.6,0.37-1.2,0.35-1.82s-0.3-1.28-0.86-1.54"/>
	<g>
		<path d="M296.3,480.26c0.13-1.39,0.45-2.71,0.8-4.06c0.31-1.2,0.25-2.48-0.97-3.1c-0.24-0.12-0.7-0.07-0.94-0.03
			c-0.36,0.05-0.78,0.17-1.1,0.36c-0.38,0.22-0.89,0.63-0.31,0.93c0.29,0.15,0.5,0.64,0.56,1.02c0.09,0.55-0.08,1.1-0.23,1.63
			c-0.35,1.22-0.59,2.44-0.7,3.7c-0.05,0.57,0.83,0.5,1.2,0.44c0.38-0.06,0.77-0.17,1.1-0.36
			C295.91,480.68,296.28,480.49,296.3,480.26L296.3,480.26z"/>
	</g>
</g>
<g>
	<path class="st4" d="M295.36,474.09c0,1.03,0,2.07,0,3.1"/>
	<g>
		<path d="M293.9,474.23c0,1.03,0,2.07,0,3.1c-0.03,0.14,0,0.26,0.07,0.37c0.05,0.13,0.13,0.22,0.26,0.29
			c0.26,0.17,0.67,0.22,0.98,0.18c0.38-0.05,0.78-0.16,1.09-0.39c0.21-0.16,0.52-0.42,0.52-0.72c0-1.03,0-2.07,0-3.1
			c0.03-0.14,0.01-0.26-0.07-0.37c-0.05-0.13-0.13-0.22-0.26-0.29c-0.26-0.17-0.67-0.22-0.98-0.18c-0.38,0.05-0.78,0.16-1.09,0.39
			C294.2,473.67,293.9,473.93,293.9,474.23L293.9,474.23z"/>
	</g>
</g>
<g>
	<path class="st4" d="M295.36,475.92"/>
	<g>
		<path d="M294.74,476.55c0.51,0,1.66-0.22,1.93-0.71c0.3-0.53-0.26-0.56-0.71-0.56c-0.51,0-1.66,0.22-1.93,0.71
			C293.74,476.53,294.29,476.55,294.74,476.55L294.74,476.55z"/>
	</g>
</g>
<g>
	<path class="st5" d="M203.44,570.43c-6.64-7.29-12.46-13.85-15.66-23.18c-2.07-6.04-3.51-13.5-3.93-19.87
		c-1.05-15.93-1.81-33.09,6.76-46.56c0.7,3.95,5.93,5.47,9.72,4.16c3.79-1.31,6.64-4.39,9.91-6.71c3.27-2.32,7.77-3.88,11.2-1.81
		c2.97,1.79,3.97,5.64,4.02,9.1c0.05,3.47-0.59,6.99,0.21,10.37c2.58,10.97,18.16,14.4,21.65,25.11c2.29,7.01-2.5,15.46-9.69,17.1
		c-7.9,1.81-17.31-3.47-23.75,1.45c-0.71,0.54-1.35,1.21-1.71,2.03c-0.53,1.2-0.4,2.58-0.22,3.89c0.88,6.65,1.6,15.2-4.36,18.26
		c-2.48,1.27-6.42,2.46-5.56,5.11"/>
	<g>
		<path d="M204.79,569.88c-4.11-4.51-8.25-9.08-11.45-14.3c-3.32-5.42-5.24-11.46-6.52-17.65c-1.29-6.21-1.7-12.51-1.98-18.83
			c-0.28-6.32-0.3-12.69,0.55-18.97c0.91-6.8,2.89-13.45,6.56-19.29c-0.93,0.13-1.86,0.25-2.79,0.38c1.16,5.59,8.68,5.75,12.84,3.88
			c3.04-1.37,5.5-3.63,8.1-5.65c2.49-1.93,5.9-4.04,9.15-2.8c2.83,1.08,4.11,4.06,4.55,6.86c0.57,3.64-0.27,7.32,0.1,10.97
			c0.53,5.22,4.01,9.11,7.9,12.32c3.78,3.11,8.04,5.77,11.18,9.58c3.52,4.26,4.5,9.78,1.92,14.8c-1.19,2.32-3.07,4.41-5.42,5.58
			c-2.74,1.36-6,1.1-8.95,0.76c-5.95-0.68-12.66-2.12-17.82,1.89c-1.35,1.05-2.27,2.38-2.37,4.12c-0.1,1.66,0.28,3.35,0.45,5
			c0.32,3.1,0.51,6.33-0.25,9.38c-0.34,1.38-0.88,2.7-1.78,3.81c-0.92,1.14-2.14,1.71-3.44,2.31c-2.03,0.94-5.54,2.43-4.77,5.26
			c0.26,0.95,3.16,0.18,2.9-0.78c-0.68-2.51,3.36-3.46,4.99-4.33c2.23-1.18,3.81-3.12,4.64-5.48c0.88-2.51,0.95-5.27,0.83-7.9
			c-0.06-1.35-0.19-2.7-0.35-4.04c-0.2-1.7-0.75-3.69,0.02-5.31c1.33-2.82,5.09-3.29,7.82-3.21c3.21,0.1,6.38,0.76,9.59,1
			c5.93,0.44,11.7-1.15,15.37-6.1c3.13-4.23,3.93-9.87,1.49-14.61c-2.28-4.42-6.39-7.44-10.25-10.4c-3.74-2.86-7.88-5.93-9.79-10.39
			c-2.63-6.16,0.94-13.36-2.59-19.27c-1.68-2.82-4.72-3.99-7.92-3.7c-3.72,0.34-6.97,2.25-9.84,4.51c-2.57,2.03-5.5,5.14-8.97,5.38
			c-2.81,0.19-5.84-1.3-6.44-4.22c-0.2-0.97-2.47-0.13-2.79,0.38c-6.77,10.77-7.78,23.69-7.43,36.11c0.36,12.67,1.3,26.15,7.5,37.5
			c3.36,6.15,8.06,11.39,12.75,16.55C202.73,571.69,205.5,570.65,204.79,569.88L204.79,569.88z"/>
	</g>
</g>
<g>
	<path class="st5" d="M327.09,544.91c-4.72,1.79-9.45,3.58-14.17,5.36c-0.83,0.31-1.69,0.65-2.27,1.32
		c-0.94,1.08-0.89,2.67-0.79,4.1c0.41,6.25,0.53,12.7-1.65,18.58c-2.17,5.83-6.5,10.73-8.3,16.69c-0.17,0.56-0.32,1.17-0.14,1.73
		c0.23,0.73,0.93,1.19,1.6,1.56c3.77,2.05,8.33,3.07,11.01,6.42c0.9,1.13,1.56,2.49,2.75,3.31c1.11,0.76,2.52,0.93,3.86,1.05
		c3.12,0.3,6.25,0.53,9.38,0.69c0.74,0.04,1.52,0.06,2.15-0.32c0.69-0.41,1.04-1.21,1.31-1.96c1.8-5.12,1.64-10.68,2.22-16.07
		c0.58-5.39,2.18-11.1,6.43-14.47c1.09-0.86,2.36-1.58,3.11-2.75c1.78-2.78-0.23-6.49-2.75-8.64c-2.51-2.15-5.68-3.8-7.07-6.8
		c-1.34-2.89-0.89-6.77-3.37-8.77c-1.88-1.51-5.17-1.68-5.69-4.03"/>
	<g>
		<path d="M326.54,544.42c-3.35,1.27-6.71,2.54-10.06,3.81c-1.61,0.61-3.25,1.16-4.82,1.84c-1.15,0.49-2.28,1.16-2.85,2.31
			c-0.53,1.08-0.49,2.35-0.42,3.52c0.1,1.75,0.21,3.49,0.24,5.24c0.06,3.45-0.13,6.92-0.95,10.28c-1.45,5.99-5.31,10.78-7.88,16.28
			c-0.62,1.32-1.37,2.86-1.55,4.33c-0.16,1.29,0.59,2.08,1.64,2.7c2.41,1.41,5.11,2.22,7.55,3.58c1.18,0.66,2.29,1.47,3.2,2.47
			c1,1.11,1.63,2.55,2.8,3.5c0.97,0.79,2.18,1.13,3.4,1.32c1.86,0.29,3.78,0.38,5.66,0.52c1.59,0.12,3.18,0.22,4.77,0.3
			c1.47,0.08,2.95,0.04,4.24-0.77c1.05-0.65,1.51-1.72,1.88-2.85c0.52-1.56,0.86-3.19,1.1-4.81c0.91-6.1,0.45-12.42,2.61-18.29
			c0.99-2.68,2.51-5.12,4.8-6.87c2.08-1.59,4.12-3.15,3.76-6.07c-0.8-6.52-9.14-7.77-10.93-13.73c-0.74-2.47-0.71-5.52-2.73-7.4
			c-1.67-1.56-5.17-1.65-5.85-4.1c-0.24-0.87-3.14-0.09-2.9,0.78c0.55,1.98,2.63,2.56,4.3,3.32c2.38,1.09,3.15,2.99,3.66,5.44
			c0.49,2.32,0.99,4.45,2.6,6.28c1.64,1.86,3.81,3.1,5.67,4.71c1.86,1.61,3.77,4.25,3.24,6.85c-0.27,1.32-1.14,2.15-2.17,2.92
			c-1.09,0.82-2.14,1.62-3.05,2.64c-3.4,3.81-4.53,9.08-5,14.02c-0.29,3.01-0.38,6.04-0.76,9.03c-0.19,1.49-0.45,2.97-0.84,4.41
			c-0.18,0.68-0.38,1.39-0.65,2.05c-0.28,0.68-0.37,1.05-1.12,1.02c-3.34-0.11-6.74-0.34-10.06-0.77c-1.45-0.18-2.63-0.59-3.6-1.72
			c-0.89-1.03-1.53-2.25-2.5-3.22c-1.74-1.74-4.05-2.79-6.27-3.76c-1.17-0.51-2.35-1-3.5-1.58c-1.58-0.8-2.38-1.5-1.79-3.41
			c1.66-5.39,5.35-9.83,7.61-14.95c2.76-6.24,2.73-13.15,2.32-19.83c-0.09-1.4-0.36-3.35,0.86-4.36c0.6-0.5,1.46-0.7,2.19-0.98
			c0.91-0.35,1.83-0.69,2.74-1.04c3.5-1.33,7.01-2.65,10.51-3.98c0.4-0.15,1.12-0.53,0.81-1.03
			C328.15,543.91,326.88,544.29,326.54,544.42L326.54,544.42z"/>
	</g>
</g>
<g>
	<path class="st6" d="M281.07,485.93c-0.41,4.33-0.48,9.47,3,12.08c1.14,0.86,2.54,1.31,3.9,1.74c2.68,0.85,5.37,1.71,8.05,2.56
		c5.59,1.78,12.3,5,12.26,10.87c-0.02,1.98-0.85,4.13,0.14,5.85c1.24,2.17,4.37,2.07,6.56,3.3c3.68,2.06,3.85,7.15,3.99,11.37
		c0.14,4.21,1.71,9.48,5.9,9.93c0.85-4.78,3.08-9.32,6.35-12.91c0.86-0.94,1.83-1.89,2.12-3.13c0.26-1.1-0.06-2.24-0.39-3.32
		c-6.12-20.54-13.64-40.67-22.5-60.18c-0.16-0.36-0.37-0.76-0.74-0.89c-0.73-0.25-1.3,0.64-1.57,1.36
		c-2.54,6.59-6.97,12.44-12.63,16.66c-4.37,3.27-9.88,5.62-15.23,4.52"/>
	<g>
		<path d="M279.62,486.32c-0.25,2.75-0.43,5.67,0.44,8.33c0.88,2.73,2.86,4.35,5.5,5.29c5.75,2.06,12.34,3.06,17.35,6.78
			c2.04,1.52,3.7,3.58,3.9,6.2c0.21,2.65-1.36,5.86,1.3,7.74c2.08,1.48,4.91,1.27,6.78,3.13c1.85,1.83,2.28,4.71,2.48,7.19
			c0.39,4.83,0.26,12.4,6.58,13.27c0.51,0.07,2.23-0.2,2.36-0.88c0.75-4.03,2.39-7.9,4.9-11.15c1.06-1.38,2.58-2.58,3.32-4.18
			c0.86-1.86-0.05-3.96-0.6-5.78c-2.61-8.66-5.48-17.25-8.59-25.75c-3.14-8.57-6.52-17.06-10.15-25.43
			c-0.92-2.11-1.85-4.22-2.79-6.32c-0.28-0.62-0.51-1.51-1.07-1.95c-0.6-0.47-1.51-0.33-2.19-0.15c-1.9,0.51-2.32,1.95-3.03,3.59
			c-0.77,1.77-1.68,3.48-2.71,5.11c-2.34,3.69-5.35,6.99-8.83,9.62c-3.74,2.82-8.29,5.04-13.08,4.13c-0.67-0.13-1.43,0.03-2.03,0.35
			c-0.23,0.12-1.01,0.71-0.33,0.84c7.73,1.47,15.29-2.62,20.8-7.75c2.78-2.58,5.17-5.59,7.08-8.87c0.94-1.61,1.74-3.3,2.45-5.02
			c0.08-0.2,0.24-0.48,0.28-0.69c0.09-0.43,0.63-0.37-0.47-0.23c-1.11,0.14-0.54-0.04-0.37,0.43c0.09,0.24,0.22,0.48,0.33,0.71
			c0.5,1.08,0.98,2.17,1.46,3.26c7.34,16.55,13.72,33.51,19.11,50.8c0.73,2.34,1.67,4.73,2.11,7.14c0.47,2.59-1.45,3.99-2.92,5.8
			c-2.81,3.47-4.7,7.58-5.51,11.97c0.79-0.29,1.57-0.58,2.36-0.88c-2.49-0.34-3.89-2.73-4.59-4.92c-0.79-2.45-0.73-4.96-0.91-7.5
			c-0.17-2.4-0.53-4.96-1.98-6.96c-1.57-2.15-3.93-2.44-6.25-3.33c-1.29-0.49-2.3-1.3-2.59-2.71c-0.32-1.58,0.25-3.19,0.25-4.77
			c0.01-2.26-1.06-4.27-2.64-5.84c-4.06-4.04-10.32-5.37-15.57-7.04c-3.34-1.06-6.9-1.84-8.34-5.41c-1.13-2.81-0.93-6.01-0.66-8.96
			C282.57,485.05,279.71,485.39,279.62,486.32L279.62,486.32z"/>
	</g>
</g>
<g>
	<path class="st6" d="M409.6,495.47c0.17,8.19-13.68,10.94-13.87,19.13c-0.07,3.11,1.99,5.82,3,8.76c1.57,4.6,0.35,10.03-3.03,13.52
		c-0.85,0.88-1.84,1.65-2.45,2.71c-1.62,2.78-0.18,6.25,0.98,9.25c1.51,3.92,2.51,8.04,2.94,12.22c1.53-0.01,2.45-1.67,3.03-3.09
		c2.5-6.11,5.02-12.27,6.33-18.74c0.68-3.36,1.02-6.77,1.37-10.18c1.08-10.64,2.16-21.28,3.24-31.92"/>
	<g>
		<path d="M408.15,495.86c0.01,3.84-3.2,6.45-5.95,8.63c-2.73,2.17-5.98,4.4-7.35,7.75c-2.1,5.1,2.6,9.49,3.06,14.43
			c0.25,2.66-0.34,5.42-1.65,7.75c-1.33,2.37-4.13,3.87-4.93,6.52c-0.98,3.24,0.89,6.63,1.94,9.6c1.24,3.53,2.05,7.19,2.46,10.9
			c0.03,0.3,0.66,0.31,0.85,0.29c1.65-0.14,3.14-0.76,4.1-2.15c1.09-1.59,1.68-3.56,2.39-5.34c1.7-4.23,3.29-8.51,4.39-12.94
			c1.13-4.58,1.56-9.27,2.04-13.95c0.48-4.75,0.96-9.49,1.45-14.24c0.55-5.4,1.1-10.8,1.65-16.21c0.09-0.91-2.79-0.35-2.87,0.45
			c-0.88,8.68-1.76,17.35-2.64,26.03c-0.44,4.31-0.78,8.65-1.42,12.94c-0.62,4.17-1.71,8.22-3.1,12.19
			c-0.75,2.15-1.58,4.28-2.43,6.4c-0.44,1.09-0.88,2.19-1.34,3.28c-0.18,0.42-0.35,0.84-0.59,1.23c-0.15,0.26-0.91,0.99-0.4,0.95
			c0.28,0.1,0.57,0.2,0.85,0.29c-0.36-3.33-1.05-6.61-2.08-9.8c-0.94-2.87-2.67-5.87-2.57-8.97c0.1-3.14,3.11-4.69,4.66-7.11
			c1.35-2.11,2.1-4.53,2.21-7.03c0.12-2.83-0.78-5.27-1.96-7.79c-1.11-2.36-2.21-4.87-1.4-7.51c1.06-3.49,4.49-5.73,7.2-7.89
			c3.04-2.42,6.38-5.27,6.37-9.49C411.05,494.44,408.15,494.9,408.15,495.86L408.15,495.86z"/>
	</g>
</g>
<g>
	<path class="st6" d="M387.34,440.42c10.84,14.57,21.42,30.91,21.28,49.07c-0.01,0.71-0.11,1.55-0.74,1.87
		c-0.52,0.26-1.14,0.04-1.67-0.19c-2.08-0.88-4.17-1.77-6.25-2.65c0.03,4.66-4.24,8.04-8.09,10.66c-1.43,0.97-3.22,1.98-4.79,1.25
		c-2.33-1.09-2.11-5.1-4.53-5.96c-1.87-0.67-3.82,1.13-5.8,0.91c-0.97-0.11-1.81-0.69-2.53-1.35c-5.21-4.81-4.66-13.13-2.95-20.02
		c2.98-11.99,8.22-23.27,13.43-34.48"/>
	<g>
		<path d="M385.89,440.81c8.67,11.66,17.25,24.29,20.24,38.76c0.41,2,0.71,4.02,0.88,6.05c0.09,1.06,0.14,2.12,0.16,3.19
			c0.01,0.46,0.03,0.93-0.01,1.38c-0.03,0.35-0.39,1.09-0.09,0.99c0.48-0.09,0.96-0.18,1.44-0.27c-1.14,0.03-2.57-0.91-3.61-1.35
			c-1.19-0.5-2.38-1.01-3.57-1.51c-0.51-0.22-2.8,0.1-2.82,0.87c-0.05,3.04-1.85,5.47-4.04,7.43c-1.07,0.96-2.22,1.82-3.4,2.63
			c-0.54,0.37-1.18,0.94-1.81,1.11c-0.59,0.16-1.25-0.3-1.65-0.72c-1.41-1.46-1.4-4.02-3.24-5.14c-0.96-0.58-2.17-0.5-3.22-0.3
			c-1.32,0.26-2.76,1.27-4.08,0.69c-2.47-1.09-4.07-4.07-4.81-6.53c-0.77-2.54-0.87-5.25-0.67-7.88c0.51-6.48,2.76-12.9,5.01-18.95
			c2.78-7.49,6.14-14.73,9.51-21.97c0.17-0.36-2.52-0.19-2.85,0.53c-3.3,7.09-6.6,14.2-9.34,21.53c-2.43,6.48-4.89,13.4-5.27,20.37
			c-0.16,2.96,0.1,6.03,1.31,8.76c1.01,2.29,3.09,5.27,5.83,5.47c1.45,0.11,2.85-0.38,4.2-0.84c1.48-0.5,2.37,0.52,2.99,1.77
			c1.07,2.16,1.73,4.49,4.63,4.36c3.46-0.16,6.66-2.73,9.17-4.9c2.46-2.13,4.55-4.8,4.61-8.19c-0.94,0.29-1.88,0.58-2.82,0.87
			c2.22,0.94,4.45,2.1,6.75,2.84c1.37,0.44,3.86,0.09,4.52-1.4c0.34-0.79,0.22-1.8,0.2-2.63c-0.02-1.13-0.09-2.27-0.19-3.39
			c-0.21-2.24-0.57-4.46-1.06-6.66c-2.02-8.93-6.23-17.22-11.1-24.92c-2.78-4.4-5.81-8.64-8.92-12.82
			C388.29,439.36,385.71,440.57,385.89,440.81L385.89,440.81z"/>
	</g>
</g>
<g>
	<path class="st6" d="M334.55,521.08c-0.18-0.36-0.36-0.71-0.53-1.07"/>
	<g>
		<path d="M336,520.69c-0.18-0.36-0.36-0.71-0.53-1.07c-0.03-0.12-0.1-0.22-0.21-0.28c-0.1-0.1-0.23-0.15-0.37-0.18
			c-0.17-0.04-0.34-0.06-0.51-0.04c-0.2,0-0.39,0.02-0.58,0.08c-0.13,0.04-0.25,0.09-0.38,0.13c-0.22,0.09-0.41,0.22-0.58,0.38
			c-0.06,0.07-0.12,0.15-0.18,0.22c-0.09,0.14-0.12,0.29-0.09,0.46c0.18,0.36,0.36,0.71,0.53,1.07c0.03,0.12,0.1,0.22,0.21,0.28
			c0.1,0.1,0.23,0.15,0.37,0.18c0.17,0.04,0.34,0.06,0.51,0.04c0.2,0,0.39-0.02,0.58-0.08c0.13-0.04,0.25-0.09,0.38-0.13
			c0.22-0.09,0.41-0.22,0.58-0.38c0.06-0.07,0.12-0.15,0.18-0.22C336.01,521.01,336.04,520.85,336,520.69L336,520.69z"/>
	</g>
</g>
<g>
	<path class="st7" d="M289.4,227.72c1.46-0.27,2.94-0.47,4.42-0.6c0.71-0.06,1.44-0.11,2.11,0.12c0.67,0.23,1.28,0.8,1.34,1.5
		c-1.02,0.24-2.16-0.31-2.61-1.26c-0.12-0.25-0.19-0.52-0.38-0.72c-0.28-0.31-0.73-0.37-1.15-0.4c-0.79-0.06-1.6-0.08-2.35,0.16
		c-0.75,0.24-1.45,0.78-1.69,1.54"/>
	<g>
		<path d="M289.12,228.23c1.46-0.27,2.7-0.45,4.2-0.57c0.48-0.04,1.06-0.06,1.56,0.21c0.51,0.27,0.85,0.69,0.93,1.27
			c0.58-0.3,1.15-0.6,1.73-0.89c-0.32,0.07,0.12-0.01,0.12-0.01c0.02-0.02-0.07-0.01-0.14-0.02c-0.18-0.04-0.34-0.1-0.51-0.18
			c-0.36-0.19-0.66-0.47-0.86-0.83c-0.2-0.38-0.3-0.8-0.68-1.06c-0.4-0.27-0.94-0.3-1.4-0.34c-1.35-0.11-2.74,0.02-4.02,0.51
			c-0.98,0.38-2.03,0.97-2.4,2.02c-0.16,0.47,0.96,0.28,1.15,0.24c0.38-0.07,0.75-0.18,1.11-0.34c0.18-0.08,0.53-0.22,0.6-0.43
			c0.12-0.34,0.29-0.64,0.57-0.86c0.05-0.04,0.31-0.16,0.18-0.12c-0.09,0.03-0.2,0.06-0.29,0.09c-0.17,0.06,0.22-0.02,0.03,0
			c0.34-0.03,0.82-0.01,1.16,0.02c0.28,0.03,0.61,0.12,0.79,0.41c0.18,0.3,0.26,0.63,0.47,0.91c0.22,0.29,0.48,0.53,0.79,0.71
			c0.83,0.47,1.84,0.47,2.76,0.28c0.28-0.06,1.79-0.36,1.73-0.89c-0.22-1.72-2.34-1.91-3.69-1.84c-1.79,0.09-3.58,0.37-5.34,0.7
			c-0.37,0.07-0.76,0.18-1.11,0.34c-0.14,0.07-0.53,0.24-0.6,0.43C287.81,228.45,288.98,228.25,289.12,228.23L289.12,228.23z"/>
	</g>
</g>
<g>
	<path class="st7" d="M293.11,272.02c0.13,1.65-0.26,3.36,0.19,4.95c0.15,0.53,0.39,1.02,0.62,1.51c0.62,1.3,1.25,2.59,1.87,3.89
		c-1.33-4.13-1.81-8.71-4.51-12.1"/>
	<g>
		<path d="M291.66,272.4c0.12,1.78-0.3,3.62,0.32,5.34c0.62,1.72,1.58,3.36,2.37,5.01c0.33,0.68,3.11-0.12,2.9-0.78
			c-1.33-4.16-1.83-8.68-4.59-12.22c-0.44-0.57-3.2,0.4-2.73,1.01c2.67,3.43,3.14,7.97,4.42,11.99c0.97-0.26,1.93-0.52,2.9-0.78
			c-0.79-1.65-1.74-3.29-2.37-5.01c-0.63-1.72-0.2-3.56-0.32-5.34C294.52,271.06,291.6,271.57,291.66,272.4L291.66,272.4z"/>
	</g>
</g>
<g>
	<path class="st7" d="M313.51,334.93c0.16-2.55,0.32-5.19-0.55-7.59c-0.28-0.77-0.65-1.49-1-2.23c-1.15-2.44-1.98-5.01-2.81-7.57"/>
	<g>
		<path d="M314.97,334.78c0.2-3.07,0.28-6.11-1.04-8.96c-1.31-2.83-2.38-5.7-3.34-8.67c-0.38-1.16-3.27-0.36-2.9,0.78
			c0.93,2.86,1.92,5.67,3.21,8.39c1.34,2.83,1.35,5.68,1.15,8.75C311.97,336.42,314.9,335.92,314.97,334.78L314.97,334.78z"/>
	</g>
</g>
<g>
	<path class="st7" d="M316.41,363.96"/>
	<g>
		<path d="M316.28,365.01c1.64,0,2.24-2.09,0.27-2.09C314.91,362.92,314.31,365.01,316.28,365.01L316.28,365.01z"/>
	</g>
</g>
<g>
	<path class="st7" d="M316.41,364.37"/>
	<g>
		<path d="M316.31,365.5c1.71,0,2.18-2.27,0.22-2.27C314.82,363.23,314.35,365.5,316.31,365.5L316.31,365.5z"/>
	</g>
</g>
<g>
	<path class="st7" d="M310.77,361.88c1.15,0.51,2.25,1.13,3.28,1.84c0.55,0.38,1.08,0.79,1.61,1.19c2.45,1.87,4.91,3.72,7.39,5.54"
		/>
	<g>
		<path d="M309.61,362.55c2.2,0.99,4.05,2.42,5.96,3.87c2.03,1.54,4.08,3.07,6.13,4.59c0.53,0.39,1.35,0.22,1.91-0.01
			c0.24-0.1,1.31-0.71,0.79-1.09c-2.12-1.56-4.23-3.14-6.33-4.73c-1.96-1.49-3.89-2.94-6.15-3.96c-0.61-0.28-1.5-0.03-2.05,0.29
			C309.51,361.72,308.98,362.27,309.61,362.55L309.61,362.55z"/>
	</g>
</g>
<g>
	<path class="st4" d="M283.72,340.87c-1.66,1.76-3.33,3.51-4.99,5.27c1.42,0.04,2.68,0.87,3.87,1.65c4.91,3.2,10.16,5.88,15.64,7.99
		c1.87,0.72,3.77,1.37,5.58,2.23c2.05,0.98,3.96,2.23,5.68,3.7"/>
	<g>
		<path d="M282.41,340.95c-1.66,1.76-3.33,3.51-4.99,5.27c-0.33,0.34,0.07,0.53,0.39,0.55c1.52,0.12,2.76,1.1,4,1.89
			c1.2,0.77,2.43,1.51,3.67,2.22c2.41,1.37,4.89,2.62,7.42,3.75c2.57,1.15,5.23,2.07,7.84,3.13c2.71,1.1,5.18,2.57,7.41,4.45
			c0.63,0.53,3.24-0.58,2.72-1.02c-4.59-3.87-10.23-5.34-15.61-7.75c-2.75-1.23-5.44-2.63-8.04-4.16c-2.36-1.39-4.74-3.56-7.56-3.79
			c0.13,0.18,0.26,0.37,0.39,0.55c1.66-1.76,3.33-3.51,4.99-5.27c0.46-0.48-0.4-0.56-0.71-0.55
			C283.72,340.26,282.85,340.49,282.41,340.95L282.41,340.95z"/>
	</g>
</g>
<path class="st8" d="M319.59,581.47"/>
<path class="st8" d="M312.19,567.13"/>
<g>
	<path class="st9" d="M211.96,431.01"/>
	<g>
		<path d="M211.36,431.67c0.53,0,1.64-0.22,1.93-0.72c0.31-0.54-0.26-0.6-0.72-0.6c-0.53,0-1.64,0.22-1.93,0.72
			C210.33,431.61,210.9,431.67,211.36,431.67L211.36,431.67z"/>
	</g>
</g>
<g>
	<path class="st10" d="M328.52,491.03"/>
	<g>
		<path d="M327.96,491.86c0.59,0,1.62-0.19,1.91-0.8c0.28-0.58-0.24-0.88-0.79-0.88c-0.59,0-1.62,0.19-1.91,0.8
			C326.89,491.57,327.41,491.86,327.96,491.86L327.96,491.86z"/>
	</g>
</g>
<g>
	<path class="st9" d="M221.76,406.7"/>
	<g>
		<path d="M221.15,407.36c0.53,0,1.64-0.22,1.93-0.72c0.31-0.54-0.26-0.6-0.72-0.6c-0.53,0-1.64,0.22-1.93,0.72
			C220.13,407.3,220.7,407.36,221.15,407.36L221.15,407.36z"/>
	</g>
</g>
<g>
	<path class="st1" d="M239.42,390.26c-2.44-8.13-1.75-17.42,3.04-24.42c4.79-7,14.02-11.08,22.16-8.7
		c-1.35,22.81,5.62,46.01,19.3,64.31c0.87,1.16,1.77,2.32,2.38,3.64c0.76,1.65,1.01,3.47,1.26,5.27c1.9,13.7,3.8,27.4,5.7,41.1
		c0.67,4.81,0.95,10.6-2.91,13.54c-1.58,1.2-3.59,1.66-5.53,2.09c-3.04,0.67-6.2,1.35-9.25,0.69c-3.05-0.65-5.96-3.03-6.19-6.14
		c-0.42,0.83-0.84,1.66-1.26,2.48"/>
	<g>
		<path d="M240.87,389.88c-3.44-11.74-0.19-26.81,12.24-31.76c2.71-1.08,5.68-1.37,8.56-0.85c0.24,0.04,0.47,0.09,0.71,0.14
			c0.55,0.12,0.6,0.04,0.78,0.55c0.22,0.62-0.09,1.86-0.1,2.54c-0.05,1.69-0.05,3.38-0.01,5.07c0.17,6.62,1.02,13.23,2.52,19.68
			c2.99,12.91,8.57,25.23,16.41,35.92c0.94,1.28,1.97,2.51,2.69,3.93c0.83,1.63,1.13,3.42,1.39,5.21c0.57,3.94,1.09,7.89,1.64,11.84
			c1.06,7.68,2.13,15.35,3.19,23.03c0.52,3.74,1.27,7.53,1.32,11.32c0.04,2.99-0.45,6.42-2.89,8.44c-1.44,1.2-3.34,1.51-5.12,1.89
			c-2.13,0.46-4.32,0.88-6.5,0.6c-3.27-0.42-6.49-2.68-6.85-6.15c-0.06-0.58-2.66,0.24-2.87,0.66c-0.42,0.83-0.84,1.66-1.26,2.48
			c-0.22,0.43,1.01,0.23,1.14,0.21c0.45-0.08,1.47-0.27,1.71-0.75c0.42-0.83,0.84-1.66,1.26-2.48c-0.96,0.22-1.92,0.44-2.87,0.66
			c0.52,4.91,5.89,6.73,10.15,6.55c2.7-0.12,5.39-0.72,8.01-1.36c2.26-0.55,4.64-1.34,6.32-3.02c3.02-3.02,2.91-7.79,2.46-11.72
			c-0.68-6.01-1.65-12-2.48-17.99c-0.86-6.19-1.72-12.38-2.57-18.57c-0.41-2.94-0.65-5.96-1.31-8.85c-0.63-2.76-2.28-4.78-3.9-7.02
			c-6.22-8.55-10.99-18.14-14.16-28.23c-3.55-11.31-5.06-23.22-4.39-35.06c-0.05-0.09-0.14-0.14-0.25-0.14
			c-6.37-1.79-13.53,0-18.9,3.68c-5.95,4.07-9.36,10.65-10.14,17.73c-0.47,4.25-0.01,8.54,1.19,12.63
			C238.14,391.23,241.03,390.43,240.87,389.88L240.87,389.88z"/>
	</g>
</g>
<g>
	<path class="st1" d="M311.67,359.15c2.72-5.85,3.87-12.37,3.69-18.82c-0.53-18.75-11.85-35.37-16.5-53.54
		c-1.07-4.19-1.8-8.49-3.29-12.56c-1.97-5.35-5.22-10.17-7.07-15.56c-2.68-7.85-2.2-16.38-1.7-24.66c0.09-1.42,0.21-2.94,1.12-4.04
		c0.95-1.16,2.56-1.56,4.06-1.61c6.58-0.2,12.02,4.86,16.41,9.76c13.1,14.6,24.26,30.94,33.1,48.46
		c20.78,41.17,28.27,87.6,34.65,133.27"/>
	<g>
		<path d="M313.1,358.89c4.79-10.47,4.46-22.16,1.45-33.08c-2.94-10.68-7.96-20.63-11.66-31.04c-1.92-5.41-3.08-10.95-4.52-16.5
			c-1.51-5.8-4.45-10.83-6.91-16.24c-2.5-5.49-3.49-11.3-3.59-17.3c-0.05-2.94,0.08-5.87,0.25-8.8c0.13-2.34-0.21-6.88,3.08-6.99
			c5.25-0.18,9.85,3.54,13.35,7.04c4.06,4.07,7.73,8.6,11.3,13.1c7.19,9.09,13.67,18.75,19.37,28.84
			c11.44,20.28,19.44,42.29,25.28,64.78c5.89,22.68,9.67,45.85,13,69.02c0.41,2.84,0.81,5.68,1.2,8.52c0.07,0.52,3-0.07,2.9-0.78
			c-3.35-23.94-6.96-47.89-12.66-71.4c-5.62-23.18-13.35-45.95-24.67-67.01c-5.63-10.47-12.1-20.49-19.33-29.93
			c-3.55-4.64-7.27-9.14-11.18-13.48c-3.4-3.78-7.26-7.61-12.23-9.19c-3.94-1.25-11-1.13-11.97,4c-0.54,2.87-0.47,5.98-0.56,8.89
			c-0.09,3.08-0.06,6.16,0.25,9.22c0.31,3.04,0.92,6.04,1.94,8.92c1.01,2.83,2.39,5.5,3.75,8.18c1.36,2.69,2.69,5.4,3.63,8.27
			c0.96,2.94,1.58,5.98,2.29,8.99c5.11,21.83,21.04,42.61,16.18,65.97c-0.61,2.94-1.55,5.79-2.8,8.52
			C310.07,359.8,312.77,359.61,313.1,358.89L313.1,358.89z"/>
	</g>
</g>
<g>
	<path class="st1" d="M331.52,264.69c2.93-6.54,5.85-13.08,8.78-19.62c3.99-8.92,8.11-18.03,14.88-25.08
		c5.33-5.55,13.67-9.71,20.6-6.37c6.88,3.32,8.82,12.15,9.01,19.78c0.81,32.09-14.34,62.18-29.32,90.57"/>
	<g>
		<path d="M332.96,264.46c2.95-6.61,5.91-13.21,8.86-19.82c2.49-5.57,5.01-11.15,8.24-16.34c3.15-5.06,7.09-10.06,12.36-13.03
			c4.75-2.68,10.38-3.11,14.71,0.66c3.71,3.23,5.2,8.33,5.83,13.04c0.79,5.95,0.45,12.14-0.18,18.09
			c-1.37,12.82-5.01,25.29-9.71,37.26c-5.39,13.72-12.18,26.85-19.04,39.87c-0.28,0.52,1.01,0.42,1.19,0.4
			c0.56-0.08,1.39-0.31,1.68-0.86c12.7-24.09,25.66-49.23,28.71-76.69c0.68-6.14,1.07-12.53,0.28-18.68
			c-0.63-4.88-2.2-10.13-6.03-13.47c-4.18-3.65-9.93-3.73-14.97-2.04c-5.75,1.93-10.39,6-14.08,10.7
			c-4.42,5.64-7.6,12.12-10.54,18.62c-3.43,7.56-6.79,15.15-10.17,22.73C329.81,265.54,332.6,265.27,332.96,264.46L332.96,264.46z"
			/>
	</g>
</g>
<g>
	<path class="st10" d="M283.98,340.89"/>
	<g>
		<path d="M283.38,341.6c0.54,0,1.64-0.21,1.93-0.74c0.3-0.55-0.26-0.67-0.74-0.67c-0.54,0-1.64,0.21-1.93,0.74
			C282.35,341.49,282.9,341.6,283.38,341.6L283.38,341.6z"/>
	</g>
</g>
<g>
	<path class="st11" d="M282.93,341.94c4.47-5.1,9.03-10.36,11.35-16.73c2.94-8.08,2.05-17.4,6.19-24.94
		c6.29,19.01,12.66,38.58,11.53,58.57c-0.06,1.02-0.29,2.25-1.24,2.6c-0.42,0.15-0.89,0.08-1.34,0"/>
	<g>
		<path d="M284.27,341.94c5.05-5.77,10.13-11.76,12.21-19.3c2.03-7.37,1.64-15.48,5.33-22.36c-0.93,0.13-1.86,0.26-2.79,0.39
			c5.11,15.43,10.28,31.11,11.43,47.43c0.16,2.28,0.24,4.57,0.23,6.86c-0.01,1.28-0.04,2.57-0.11,3.85
			c-0.02,0.39-0.04,0.79-0.13,1.18c-0.03,0.15-0.07,0.31-0.12,0.46c-0.03,0.11-0.07,0.22-0.14,0.31c-0.15,0.24-0.11,0.23,0.14-0.05
			c-0.65-0.1-1.56,0.08-2.05,0.55c-0.41,0.39-0.39,0.83,0.25,0.93c1.62,0.25,3.6-0.05,4.46-1.62c0.84-1.52,0.56-3.77,0.59-5.44
			c0.07-4.5-0.22-9-0.78-13.47c-1.15-9.08-3.41-17.98-6.05-26.73c-1.52-5.04-3.17-10.05-4.82-15.05c-0.29-0.88-2.48-0.19-2.79,0.39
			c-3.65,6.81-3.48,14.61-5.33,21.95c-1.96,7.77-7.05,13.82-12.21,19.71c-0.46,0.52,0.39,0.75,0.76,0.76
			C283.02,342.72,283.83,342.45,284.27,341.94L284.27,341.94z"/>
	</g>
</g>
<g>
	<path class="st1" d="M217.18,414.2c6.12,24.11,12.37,48.54,24.56,70.22c3.66,6.51,8.91,13.4,16.36,13.9
		c2.63,0.18,5.53-0.67,6.97-2.88c0.76-1.17,1.04-2.58,1.29-3.96c2.07-11,4.14-22.32,1.99-33.31c-2.29-11.68-9.13-21.87-13.73-32.85
		c-2.48-5.91-4.32-12.09-7.24-17.78c-3.59-7.01-8.8-13.19-15.11-17.92c-5.72-4.29-13.03-7.46-19.93-5.6
		c-4.58,1.23-8.33,4.52-11.34,8.18c-11.33,13.83-13.5,32.88-13.88,50.76c-0.24,11.51,0.06,23.08,2.03,34.42
		c6.01,34.67,24.24,58.68,46.12,86.24c0,0-2.71-6.08,0,0c2.85,6.42,1.24,6.91,0,0c-5.49-30.55,3.33,11.57,2.71,6.08
		c-6.12-53.7,4.9-2.55,0,0"/>
	<g>
		<path d="M215.73,414.59c3.9,15.38,7.83,30.79,13.36,45.68c2.74,7.38,5.88,14.61,9.57,21.56c3.05,5.77,6.59,12.04,12.42,15.41
			c5,2.89,13.75,3.28,16.09-3.26c0.65-1.82,0.88-3.82,1.23-5.72c0.39-2.14,0.77-4.27,1.1-6.42c0.64-4.11,1.11-8.26,1.21-12.42
			c0.17-7.93-1.37-15.46-4.41-22.77c-2.93-7.06-6.77-13.7-9.81-20.71c-3.1-7.17-5.2-14.77-9.18-21.55
			c-3.61-6.16-8.49-11.57-14.25-15.8c-5.79-4.25-13.1-7.23-20.35-5.59c-6.82,1.54-11.93,7.03-15.69,12.61
			c-7.83,11.6-10.26,25.93-11.06,39.64c-0.93,15.94-0.6,32.26,2.78,47.92c2.93,13.52,8.13,26.4,14.92,38.43
			c6.82,12.08,15.09,23.27,23.61,34.2c2.2,2.82,4.42,5.63,6.65,8.44c0.6,0.75,3.26,0.07,2.78-0.99c-0.4-0.9-0.8-1.8-1.2-2.7
			c-0.51-1.15-3.37-0.29-2.9,0.78c0.6,1.36,1.24,2.71,1.79,4.09c0.31,0.77,0.59,1.55,0.81,2.35c0.06,0.23,0.08,0.5,0.16,0.73
			c0.09,0.23-0.07,0.23,0.07,0.04c0.38-0.25,0.76-0.51,1.14-0.76c-0.01,0-0.02,0.01-0.03,0.01c0.36-0.01,0.73-0.01,1.09-0.02
			c0.49,0.17,0.35,0.21,0.15-0.24c-0.17-0.41-0.3-0.84-0.42-1.27c-0.34-1.21-0.57-2.45-0.8-3.69c-0.35-1.97-0.7-3.94-1.03-5.92
			c-0.19-1.1-0.37-2.2-0.52-3.31c-0.04-0.28-0.04-0.59-0.11-0.86c-0.06-0.26-0.06-0.09-0.01-0.04c0,0,0-0.09,0-0.09
			c0-0.01,0-0.01,0-0.02c0.07-0.41-0.21-0.13-0.83,0.83c-0.49,0.05-0.98,0.1-1.47,0.16c-0.53-0.1-0.58-0.7-0.42-0.13
			c0.08,0.29,0.17,0.58,0.25,0.87c0.25,0.91,0.47,1.83,0.69,2.74c0.6,2.48,1.17,4.96,1.76,7.44c0.45,1.91,0.86,3.84,1.41,5.73
			c0.19,0.66,0.36,1.12,1.15,1.2c1.81,0.19,2.06-1.03,1.91-2.32c-0.66-5.82-1.3-11.65-1.68-17.5c-0.09-1.4-0.17-2.81-0.16-4.21
			c0-0.39,0.01-0.77,0.05-1.16c0.01-0.13,0.03-0.26,0.05-0.39c0.04-0.34-0.03-0.13,0-0.08c-0.02-0.03,0.42-0.51-0.13,0.15
			c-0.65,0.17-1.3,0.34-1.94,0.51c-0.16-0.04-0.3-0.12-0.41-0.24c0,0,0.12,0.13,0.11,0.15c0-0.01-0.08-0.18,0.03,0.07
			c0.06,0.13,0.1,0.27,0.15,0.41c0.24,0.71,0.41,1.45,0.57,2.18c0.52,2.35,0.89,4.74,1.19,7.12c0.36,2.88,0.65,5.79,0.61,8.7
			c-0.01,1.11-0.06,2.24-0.28,3.33c-0.09,0.45-0.21,0.79-0.28,0.97c-0.04,0.09-0.24,0.58-0.09,0.21c-0.13,0.31-0.05,0.07,0.21-0.08
			c-1.73,0.96-0.15,2.22,1.22,1.46c2.34-1.3,2.17-4.72,2.14-7.04c-0.04-3.74-0.45-7.48-1.03-11.17c-0.24-1.55-0.52-3.1-0.87-4.62
			c-0.2-0.86-0.36-1.98-0.88-2.72c-0.82-1.15-2.81-0.47-3.19,0.75c-0.33,1.06-0.15,2.4-0.12,3.48c0.11,3.27,0.4,6.53,0.71,9.79
			c0.25,2.64,0.52,5.27,0.81,7.9c0.12,1.08,0.06,2.42,0.39,3.46c0.05,0.15-0.05,0.03,0.08-0.16c0.25-0.21,0.51-0.42,0.76-0.63
			c0,0,0,0,0,0c0.49-0.05,0.98-0.1,1.47-0.16c0.06,0.01,0.59,0.28,0.53,0.42c0.01-0.02-0.04-0.07-0.04-0.1
			c0.01-0.11-0.1-0.3-0.13-0.4c-0.12-0.41-0.22-0.83-0.33-1.24c-0.33-1.32-0.65-2.64-0.96-3.96c-0.72-3.03-1.41-6.07-2.16-9.1
			c-0.22-0.87-0.39-1.8-0.71-2.64c-0.5-1.32-2.83-1-3.06,0.36c-0.16,0.94,0.25,2.22,0.39,3.13c0.42,2.63,0.89,5.25,1.36,7.87
			c0.3,1.68,0.56,3.56,1.37,5.09c0.6,1.14,2.66,1.1,3.13-0.19c0.36-0.99-0.41-2.52-0.74-3.41c-0.59-1.57-1.31-3.09-2-4.62
			c-0.97,0.26-1.93,0.52-2.9,0.78c0.4,0.9,0.8,1.8,1.2,2.7c0.93-0.33,1.86-0.66,2.78-0.99c-16.49-20.78-33.04-42.15-41.43-67.67
			c-4.76-14.48-6.58-29.54-6.66-44.75c-0.07-13.64,0.37-27.75,4.58-40.84c2.03-6.32,5.07-12.42,9.34-17.53
			c2.12-2.53,4.59-4.92,7.58-6.38c3.16-1.54,6.65-1.76,10.05-0.96c6.89,1.62,12.89,6.34,17.64,11.42
			c4.98,5.33,8.51,11.54,11.18,18.3c1.4,3.55,2.64,7.16,4.1,10.68c1.39,3.37,3,6.65,4.62,9.92c3.16,6.35,6.45,12.71,8.38,19.56
			c2.17,7.7,2.11,15.67,1.13,23.55c-0.5,3.99-1.21,7.95-1.95,11.9c-0.32,1.69-0.47,3.67-1.47,5.13c-0.9,1.33-2.43,1.93-3.99,2.04
			c-6.35,0.45-11.34-5.26-14.5-10.04c-4.03-6.09-7.14-12.9-9.97-19.62c-5.9-13.99-10.08-28.64-13.9-43.32
			c-0.92-3.53-1.82-7.06-2.71-10.6C218.33,412.63,215.43,413.4,215.73,414.59L215.73,414.59z"/>
	</g>
</g>
<g>
	<path class="st3" d="M340.78,533.23c1.1-2.98-0.05-6.62-2.65-8.43c-0.82-0.57-1.94-0.96-2.79-0.44c-0.65,0.39-0.92,1.18-1.09,1.91
		c-0.88,3.85,0.02,7.9,1.54,11.54c1.53,3.64,3.67,6.98,5.45,10.49c6.58,12.96,8.11,27.92,13.71,41.33c1.15,2.76,3.1,5.86,6.08,5.82
		c0.66-0.01,1.36-0.21,1.76-0.73c0.46-0.59,0.42-1.41,0.36-2.16c-0.38-4.67-0.77-9.34-1.15-14c-0.12-1.48-0.24-2.97-0.61-4.41
		c-0.59-2.32-1.77-4.43-2.92-6.53c-6.74-12.37-12.35-25.35-16.74-38.73"/>
	<g>
		<path d="M342.21,532.99c1.3-3.84-1.05-10.13-5.94-9.43c-2.78,0.4-3.54,2.35-3.77,4.89c-0.27,2.96,0.37,5.93,1.4,8.69
			c2.06,5.49,5.53,10.33,7.81,15.74c2.25,5.34,3.83,10.93,5.35,16.52c1.5,5.54,2.92,11.1,4.85,16.51
			c1.36,3.81,3.18,10.08,8.18,10.15c2.02,0.03,4.48-0.81,4.53-3.13c0.03-1.52-0.23-3.1-0.35-4.62c-0.13-1.61-0.26-3.22-0.4-4.83
			c-0.25-3-0.29-6.11-0.9-9.07c-0.59-2.89-2.13-5.44-3.51-8c-6.54-12.12-11.99-24.82-16.29-37.9c-0.23-0.71-3.11,0.13-2.9,0.78
			c3.38,10.26,7.45,20.28,12.21,29.98c1.21,2.46,2.46,4.89,3.75,7.31c1.24,2.31,2.65,4.6,3.45,7.11c0.79,2.47,0.84,5.12,1.05,7.68
			c0.23,2.74,0.45,5.47,0.68,8.21c0.11,1.31,0.31,2.64,0.31,3.95c0,0.33-0.01,0.65-0.12,0.96c-0.13,0.35,0.16,0.24-0.18,0.32
			c-0.48,0.11-1.25-0.43-1.63-0.7c-1.77-1.24-2.76-3.32-3.56-5.26c-1.91-4.62-3.33-9.43-4.65-14.24c-2.69-9.79-5.07-19.7-9.95-28.69
			c-2.8-5.14-6.11-10.39-6.27-16.43c-0.04-1.45,0.16-2.85,0.56-4.23c0.03-0.11,0.39-0.55,0.11-0.41c-0.28,0.05-0.14,0.15,0.42,0.27
			c0.16,0.09,0.32,0.2,0.46,0.31c0.42,0.31,0.81,0.67,1.15,1.07c1.61,1.92,2.09,4.64,1.29,7
			C339.14,534.08,341.95,533.76,342.21,532.99L342.21,532.99z"/>
	</g>
</g>
<g>
	<path class="st1" d="M266.49,351.44c-1-2.34,1.17-5.05,3.65-5.58c2.49-0.53,5.03,0.43,7.37,1.41
		c43.05,17.92,81.41,46.99,110.32,83.58c0.82,1.03,1.66,2.15,1.77,3.46c0.12,1.41-0.61,2.73-1.31,3.96
		c-13.58,24.06-20.14,51.57-22.66,79.09s-1.17,55.22,0.19,82.82c0.31,6.2,1.16,13.39,6.45,16.66"/>
	<g>
		<path d="M267.94,351.05c-0.96-2.65,1.5-4.67,4-4.4c2.81,0.3,5.57,1.82,8.14,2.93c4.92,2.13,9.78,4.42,14.56,6.84
			c9.44,4.78,18.6,10.1,27.43,15.92c17.84,11.77,34.3,25.61,48.96,41.17c3.68,3.9,7.24,7.92,10.68,12.03
			c1.72,2.05,3.44,4.11,5.06,6.24c0.87,1.14,1.6,2.34,1.3,3.83c-0.31,1.53-1.34,2.92-2.08,4.28c-5.49,10.03-9.81,20.69-13.13,31.63
			c-7,23.01-9.55,47.09-10.01,71.06c-0.24,12.73,0.09,25.47,0.61,38.2c0.26,6.33,0.57,12.65,0.88,18.98
			c0.22,4.49,0.5,9.23,2.65,13.28c0.99,1.87,2.36,3.39,4.15,4.54c0.89,0.57,3.53-0.69,2.28-1.5c-4.06-2.61-5.29-7.6-5.81-12.12
			c-0.69-5.98-0.72-12.07-0.99-18.08c-0.59-13.1-1.04-26.22-0.91-39.34c0.23-24.74,2.53-49.64,9.51-73.47
			c3.37-11.51,7.84-22.72,13.62-33.24c1.3-2.36,3.07-4.83,1.7-7.56c-1.13-2.26-3.13-4.25-4.73-6.2c-3.5-4.26-7.13-8.41-10.89-12.44
			c-14.87-15.99-31.65-30.21-49.83-42.29c-9.12-6.06-18.6-11.58-28.37-16.52c-4.85-2.45-9.78-4.76-14.77-6.91
			c-4.52-1.95-10.45-5.07-14.97-1.43c-1.6,1.29-2.67,3.3-1.94,5.35C265.44,352.95,268.32,352.12,267.94,351.05L267.94,351.05z"/>
	</g>
</g>
<g>
	<g>
		<path d="M218.02,431.21c1.1,5.25,2.2,10.51,3.31,15.76c0.93-0.32,1.86-0.65,2.79-0.97c-2.65-4.12-4.81-8.53-6.42-13.15
			c-0.81-2.34-1.5-4.72-1.93-7.16c-0.22-1.22-0.37-2.46-0.43-3.69c-0.04-0.7-0.04-1.4-0.01-2.1c0.01-0.13,0.02-1.3,0.03-1.31
			c-0.37,0.13-0.73,0.25-1.1,0.38c0.09-0.01,0.18-0.02,0.26-0.02c-0.32-0.04-0.64-0.08-0.96-0.13c1.06,0.47,2.06,2,2.71,2.93
			c0.87,1.23,1.57,2.58,2.1,3.99c1.02,2.74,1.36,5.66,0.96,8.55c-0.17,1.21,2.76,0.72,2.91-0.33c0.43-3.16,0.07-6.38-1.1-9.35
			c-0.56-1.42-1.3-2.78-2.18-4.02c-0.76-1.07-1.86-2.69-3.11-3.22c-1.22-0.52-2.88,0.24-3.28,1.49c-0.52,1.62-0.19,3.89-0.01,5.55
			c0.43,3.9,1.59,7.71,3.01,11.35c1.56,4,3.53,7.81,5.85,11.42c0.51,0.8,3,0.05,2.79-0.97c-1.1-5.25-2.2-10.51-3.31-15.76
			C220.69,429.37,217.79,430.1,218.02,431.21L218.02,431.21z"/>
	</g>
</g>
<g>
	<g>
		<path d="M215.44,411.71c1.24,5.01,2.49,10.02,3.73,15.03c0.61,2.45,1.1,4.98,1.84,7.4c0.49,1.61,1.13,3.19,1.66,4.79
			c1.07,3.19,2.07,6.4,3.14,9.59c4.43,13.15,9.19,26.36,15.57,38.71c1.51,2.92,3.04,5.99,5.3,8.41c3.02,3.24,7.19,4.91,11.62,4.77
			c0.6-0.02,1.61-0.18,1.91-0.8c0.27-0.57-0.23-0.91-0.8-0.89c-4.01,0.13-7.59-1.48-10.26-4.46c-1.94-2.17-3.31-4.8-4.65-7.37
			c-3.27-6.26-6.03-12.79-8.62-19.36c-3.76-9.56-7.01-19.28-10.21-29.04c-0.4-1.22-0.83-2.44-1.26-3.65c-0.84-2.42-1.38-4.94-2-7.43
			c-1.36-5.49-2.73-10.98-4.09-16.46C218.08,409.89,215.18,410.65,215.44,411.71L215.44,411.71z"/>
	</g>
</g>
<g>
	<g>
		<path d="M240.64,382.9c-1.8-5.81-0.84-12.39,2.79-17.32c3.56-4.84,9.31-7.55,15.3-7.19c1,0.06,3.11-1.36,1.17-1.47
			c-6.74-0.41-13.72,2.39-18.18,7.5c-4.54,5.21-6.01,12.7-3.98,19.27C238.02,384.56,240.91,383.76,240.64,382.9L240.64,382.9z"/>
	</g>
</g>
<g>
	<g>
		<path d="M305.52,456.59c-8,15.92-10.1,33.99-8.95,51.59c0.33,5.08,0.93,10.15,1.73,15.18c0.15,0.92,3.06,0.25,2.9-0.78
			c-2.77-17.39-3.16-35.53,1.8-52.58c1.38-4.76,3.19-9.37,5.42-13.8c0.29-0.59-0.98-0.6-1.24-0.57
			C306.54,455.71,305.82,455.99,305.52,456.59L305.52,456.59z"/>
	</g>
</g>
<g>
	<g>
		<path d="M265.78,350.46c-2.38,5.01-2.44,10.69-0.61,15.89c0.43,1.23,3.32,0.41,2.9-0.78c-1.71-4.86-1.77-10.16,0.46-14.86
			C269.21,349.28,266.29,349.39,265.78,350.46L265.78,350.46z"/>
	</g>
</g>
<g>
	<path d="M289.57,435.32c-1.17,9.66,2.26,19.22,3.46,28.87c0.08,0.68,0.16,1.37,0.39,2.02c0.13,0.38,0.31,0.73,0.54,1.06
		c0.24,0.36,0.59,0.7,1.02,0.73c0.43,0.02,0.8-0.27,1.1-0.57c1.67-1.63,2.74-3.87,2.95-6.19c0.14-1.49-0.06-2.98-0.27-4.46
		c-0.54-3.88-1.11-7.78-2.32-11.51c-1.21-3.73-3.11-7.3-5.98-9.98"/>
	<g>
		<path d="M288.09,435.41c-0.59,5.25,0.07,10.5,1.03,15.66c0.49,2.64,1.06,5.27,1.55,7.91c0.25,1.32,0.48,2.64,0.67,3.96
			c0.18,1.2,0.2,2.5,0.61,3.65c0.71,2.02,2.58,3.28,4.58,1.95c1.7-1.13,2.92-3.3,3.5-5.21c0.73-2.38,0.46-4.76,0.13-7.18
			c-0.36-2.64-0.75-5.28-1.35-7.88c-1.2-5.19-3.36-10.13-7.25-13.85c-0.99-0.95-3.46,0.54-2.22,1.74c2.87,2.75,4.7,6.4,5.85,10.17
			c0.66,2.17,1.12,4.4,1.49,6.64c0.36,2.16,0.77,4.38,0.89,6.57c0.11,2.02-0.27,4-1.36,5.73c-0.25,0.39-0.53,0.77-0.83,1.12
			c-0.06,0.07-0.53,0.54-0.53,0.54c0.11-0.01,0.21-0.01,0.32-0.02c0.34,0.07,0.41,0.01,0.21-0.16c-0.04-0.38-0.53-0.9-0.64-1.33
			c-0.14-0.53-0.2-1.08-0.27-1.63c-0.58-4.46-1.57-8.85-2.4-13.27c-0.95-5.06-1.61-10.16-1.03-15.31
			C291.21,433.68,288.25,434.02,288.09,435.41L288.09,435.41z"/>
	</g>
</g>
<g>
	<path d="M287.7,430.36c1.91,15.69,5.22,31.2,9.89,46.3"/>
	<g>
		<path d="M286.26,430.75c1.92,15.69,5.23,31.19,9.89,46.3c0.37,1.18,3.26,0.39,2.9-0.78c-4.67-15.11-7.97-30.61-9.89-46.3
			C289.01,428.81,286.1,429.49,286.26,430.75L286.26,430.75z"/>
	</g>
</g>
<g>
	<g>
		<path d="M296.26,477.12c-1.29,5.23-5.64,9.73-11.01,10.73c-5.53,1.03-11.28-1.76-14.42-6.3c-0.71-1.03-3.49,0.06-2.66,1.25
			c3.85,5.58,10.96,8.26,17.57,6.94c6.49-1.29,11.87-6.48,13.45-12.87C299.52,475.53,296.56,475.89,296.26,477.12L296.26,477.12z"/>
	</g>
</g>
<g>
	<g>
		<path d="M300.51,357.64c0.64,0,1.53-0.13,2.05-0.55c0.37-0.3,0.47-0.63-0.17-0.63c-0.64,0-1.53,0.13-2.05,0.55
			C299.98,357.31,299.87,357.64,300.51,357.64L300.51,357.64z"/>
	</g>
</g>
<g>
	<g>
		<path d="M263.69,347.03c0.64,0,1.53-0.13,2.05-0.55c0.37-0.3,0.47-0.63-0.17-0.63c-0.64,0-1.53,0.13-2.05,0.55
			C263.15,346.7,263.05,347.03,263.69,347.03L263.69,347.03z"/>
	</g>
</g>
<g>
	<g>
		<path d="M315.85,361.25c0.96-23.45-7.48-45.73-15.44-67.37c-4.05-11.01-8.07-22.06-10.89-33.46c-1.39-5.64-2.49-11.36-3.12-17.14
			c-0.49-4.42-0.53-9.11,1.51-13.19c0.71-1.43,1.94-3.31,3.62-3.69c2.69-0.61,5.58,1.79,7.4,3.45c4.26,3.91,8.12,8.35,11.85,12.76
			c7.67,9.1,14.49,18.92,20.52,29.18c12.36,21.03,21.38,43.88,28.08,67.3c7.35,25.66,11.99,52,15.85,78.39
			c0.49,3.32,0.96,6.64,1.42,9.97c0.08,0.54,3-0.05,2.9-0.78c-3.82-27.36-8.23-54.71-15.36-81.44
			c-6.5-24.35-15.31-48.17-27.68-70.19c-5.92-10.54-12.64-20.65-20.24-30.06c-3.73-4.63-7.67-9.09-11.82-13.35
			c-2.04-2.1-4.15-4.41-6.87-5.64c-2.17-0.97-4.52-1.01-6.77-0.33c-9.77,2.97-7.74,16.58-6.52,24.13
			c1.91,11.89,5.56,23.42,9.57,34.75c7.92,22.36,17.83,44.77,19.06,68.79c0.15,2.89,0.16,5.78,0.04,8.67
			C312.93,362.42,315.81,362.08,315.85,361.25L315.85,361.25z"/>
	</g>
</g>
<g>
	<g>
		<path d="M291.07,331.34c5.55-11.29,10.04-23.07,13.44-35.18c0.37-1.32-2.59-0.98-2.93,0.24c-3.35,11.93-7.8,23.53-13.27,34.65
			C287.6,332.49,290.53,332.45,291.07,331.34L291.07,331.34z"/>
	</g>
</g>
<g>
	<g>
		<path d="M285.95,341.02c1.48-2.63,2.9-5.28,4.25-7.97c0.31-0.61-0.28-1.07-0.85-1.11c-0.66-0.04-1.57,0.21-1.89,0.86
			c-1.36,2.69-2.78,5.35-4.25,7.97c-0.34,0.61,0.3,1.07,0.85,1.11C284.74,341.92,285.59,341.66,285.95,341.02L285.95,341.02z"/>
	</g>
</g>
<g>
	<g>
		<path d="M362.61,312.08c-2.59,4.34-5.4,8.54-8.44,12.58c-0.43,0.57,0.36,0.94,0.82,0.97c0.71,0.04,1.47-0.25,1.9-0.82
			c3.04-4.04,5.85-8.24,8.44-12.58c0.35-0.59-0.31-0.93-0.82-0.97C363.87,311.22,362.96,311.49,362.61,312.08L362.61,312.08z"/>
	</g>
</g>
<g>
	<g>
		<path d="M337.36,263.81c0.12-11.52,4.91-22.04,10.97-31.61c1.49-2.35,3.04-4.67,4.62-6.96c1.48-2.15,2.88-4.35,4.79-6.15
			c3.44-3.24,7.99-5.21,12.73-5.32c2.39-0.06,4.78,0.34,7.04,1.15c0.72,0.26,1.07,0.37,1.47,1.04c0.36,0.6,0.65,1.26,0.94,1.89
			c0.58,1.26,1.07,2.55,1.49,3.87c1.68,5.26,2.09,10.84,1.9,16.33c-0.2,5.68-1.03,11.32-1.86,16.93
			c-0.85,5.77-1.51,11.56-2.76,17.26c-2.93,13.4-8.13,26.25-14.97,38.13c-0.3,0.53,1.02,0.46,1.2,0.44c0.6-0.08,1.36-0.33,1.67-0.88
			c6.47-11.23,11.46-23.32,14.47-35.94c1.43-6.02,2.17-12.11,3.07-18.22c0.86-5.86,1.77-11.73,2.03-17.66
			c0.26-5.77-0.11-11.63-1.87-17.17c-0.44-1.39-0.97-2.74-1.58-4.06c-0.33-0.7-0.67-1.4-1.05-2.07c-0.36-0.63-0.8-0.76-1.48-1.02
			c-2.27-0.87-4.69-1.32-7.12-1.4c-5-0.17-10.05,1.23-14.28,3.9c-4.73,2.98-7.56,7.6-10.6,12.16c-7.29,10.92-13.57,22.7-13.71,36.14
			C334.46,265.24,337.35,264.78,337.36,263.81L337.36,263.81z"/>
	</g>
</g>
<g>
	<g>
		<path d="M314.47,364.12c1.19-1.32,2.54-2.47,4.04-3.41c0.65-0.41,1.48-0.84,2.12-1.13c0.28-0.13,0.77-0.32,1.14-0.46
			c0.53-0.2,0.57-0.21,1.11-0.36c0.34-0.1,1.42-0.42,1.3-0.94c-0.11-0.51-1.34-0.24-1.6-0.17c-4.12,1.18-7.9,3.39-10.77,6.59
			c-0.45,0.5,0.39,0.63,0.72,0.62C313.18,364.83,314.03,364.62,314.47,364.12L314.47,364.12z"/>
	</g>
</g>
<g>
	<g>
		<path d="M269.17,392.23c1.26,4.22,2.79,8.36,4.6,12.38c0.29,0.64,1.09,0.69,1.69,0.53c0.43-0.12,1.49-0.67,1.2-1.3
			c-1.81-4.02-3.34-8.15-4.6-12.38C271.7,390.22,268.81,391.01,269.17,392.23L269.17,392.23z"/>
	</g>
</g>
<g>
	<g>
		<path d="M266.16,349.04c-0.86,5.68-1.2,11.41-1.08,17.16c0.02,1,2.92,0.41,2.9-0.78c-0.12-5.59,0.25-11.18,1.09-16.71
			C269.26,347.5,266.33,347.98,266.16,349.04L266.16,349.04z"/>
	</g>
</g>
<g>
	<g>
		<path class="st1" d="M316.81,448.38c-4.75,2.42-10.77,0.78-14.87-2.63c-4.1-3.41-6.67-8.28-9.04-13.06
			c-7.48-15.11-13.96-30.72-19.37-46.69c-3.74-11.03-6.93-23.3-2.45-34.05"/>
		<g>
			<path d="M316.16,447.49c-6.31,3.07-13.1-1.62-16.78-6.56c-2.05-2.75-3.63-5.82-5.15-8.89c-1.79-3.62-3.52-7.27-5.2-10.95
				c-3.33-7.31-6.42-14.73-9.28-22.24c-2.75-7.23-5.5-14.54-7.44-22.03c-2.09-8.07-3.06-16.77,0.16-24.69
				c0.63-1.56-2.28-1.6-2.78-0.36c-2.96,7.28-2.64,15.21-1.01,22.77c1.73,8.04,4.69,15.85,7.58,23.54
				c3.02,8.04,6.31,15.98,9.87,23.8c1.72,3.78,3.5,7.53,5.34,11.25c1.64,3.32,3.34,6.66,5.63,9.59c4.71,6.05,12.89,10.19,20.36,6.55
				C319.24,448.4,317.66,446.76,316.16,447.49L316.16,447.49z"/>
		</g>
	</g>
	<g>
		<path class="st1" d="M268.38,358.07c-2.7,10.04,0.24,20.82,3.44,30.83c4.02,12.42,8.36,24.9,15.08,36.05
			c3.63,6.02,8.77,10.99,13.23,16.37c5.38,6.49,9.12,13.79,9.49,18.06"/>
		<g>
			<path d="M266.92,358.21c-1.96,7.52-0.9,15.36,1.01,22.77c1.91,7.42,4.44,14.73,7.1,21.91c2.63,7.12,5.63,14.12,9.4,20.72
				c3.68,6.46,8.75,11.7,13.53,17.33c2.68,3.16,5.12,6.53,7.1,10.17c1.45,2.66,2.82,5.62,3.12,8.67c0.12,1.2,3.03,0.52,2.9-0.78
				c-0.25-2.57-1.3-5.04-2.43-7.34c-1.53-3.1-3.39-6.04-5.47-8.8c-4.43-5.87-9.93-10.88-13.99-17.04
				c-4.18-6.34-7.29-13.45-10.04-20.51c-2.76-7.11-5.24-14.39-7.37-21.72c-2.42-8.31-4.15-17.12-1.92-25.67
				C270.18,356.66,267.23,357.03,266.92,358.21L266.92,358.21z"/>
		</g>
	</g>
	<g>
		<g>
			<path d="M264.22,364.34c-0.78,8.39,1.19,16.64,3.5,24.64c2.17,7.51,4.29,15.16,7.83,22.17c1.68,3.32,3.68,6.44,6.08,9.3
				c2.38,2.83,5.03,5.42,7.62,8.05c5.24,5.33,9.86,10.95,12.15,18.19c2.46,7.76,2.33,16.19-0.43,23.86
				c-0.24,0.67,0.91,0.81,1.29,0.78c0.68-0.06,1.38-0.41,1.62-1.07c2.39-6.65,2.81-13.93,1.34-20.84
				c-1.54-7.19-5.2-13.4-10.12-18.79c-5.01-5.48-10.73-10.32-14.66-16.7c-4.11-6.65-6.41-14.23-8.62-21.67
				c-2.72-9.14-5.57-18.55-4.68-28.2C267.26,362.72,264.33,363.2,264.22,364.34L264.22,364.34z"/>
		</g>
	</g>
</g>
<g>
	<g>
		<path d="M308.75,465.36c6.06-6.28,11.52-13.09,16.36-20.35c0.52-0.79-0.69-1.23-1.24-1.16c-6.98,0.94-10.27,7.58-13.22,13.18
			c-4.09,7.77-8.19,15.54-12.28,23.31c-0.74,1.41,2.19,1.37,2.76,0.29c3.71-7.04,7.41-14.08,11.12-21.11c1.56-2.97,3-6.09,4.95-8.83
			c1.54-2.18,3.6-4.42,6.39-4.79c-0.41-0.39-0.83-0.77-1.24-1.16c-4.72,7.08-10.09,13.72-16.01,19.84
			c-0.48,0.49-0.23,1.12,0.36,1.34C307.38,466.17,308.27,465.87,308.75,465.36L308.75,465.36z"/>
	</g>
</g>
<g>
	<g>
		<path d="M286.88,427.87c0.58,0,1.62-0.2,1.91-0.78c0.29-0.58-0.24-0.82-0.78-0.82c-0.58,0-1.62,0.2-1.91,0.78
			C285.82,427.62,286.35,427.87,286.88,427.87L286.88,427.87z"/>
	</g>
</g>
<g>
	<g>
		<path d="M240.61,394.5c-0.75-7.61-1.5-15.72,1.68-22.91c0.61-1.38-2.29-1.15-2.73-0.16c-3.33,7.54-2.64,15.86-1.85,23.85
			C237.82,396.37,240.73,395.72,240.61,394.5L240.61,394.5z"/>
	</g>
</g>
<g>
	<g>
		<path d="M266.18,479.81c5.58,7.37,15.87,9.86,24.38,6.62c0.54-0.2,1.09-0.88,0.7-1.44c-0.42-0.6-1.41-0.39-1.96-0.18
			c-7.23,2.75-15.87-0.19-20.47-6.25C268.08,477.56,265.31,478.67,266.18,479.81L266.18,479.81z"/>
	</g>
</g>
<g>
	<g>
		<path d="M315.23,364.49c3-1.75,6.53-2.55,9.99-2.36c0.82,0.05,2.43-0.56,1.85-1.62c-3.21-5.85-13.58-4.76-16.08,1.18
			c-0.62,1.48,2.29,1.38,2.75,0.27c0.48-1.14,1.16-1.9,2.15-2.49c-0.21,0.13,0.13-0.07,0.18-0.09c0.15-0.08,0.3-0.15,0.45-0.21
			c0.06-0.02,0.51-0.19,0.23-0.1c0.14-0.05,0.28-0.09,0.42-0.13c0.14-0.04,0.28-0.08,0.42-0.11c0.09-0.02,0.19-0.04,0.29-0.06
			c-0.13,0.02-0.14,0.03-0.03,0.01c0.31-0.05,0.63-0.08,0.95-0.09c0.41-0.02,1.05,0.02,1.66,0.14c0.01,0,0.47,0.13,0.65,0.18
			c0.28,0.09,0.57,0.2,0.78,0.3c1.1,0.54,1.95,1.37,2.54,2.44c0.62-0.54,1.23-1.08,1.85-1.62c-4.55-0.25-8.98,0.86-12.92,3.15
			c-0.51,0.3-0.73,1.05-0.18,1.41C313.79,365.11,314.64,364.83,315.23,364.49L315.23,364.49z"/>
	</g>
</g>
<g>
	<g>
		<path d="M300.16,357.6c0.41,2.5,2,4.81,4.24,6.02c0.64,0.34,1.5,0.29,2.08-0.18c0.23-0.19,0.49-0.45,0.51-0.77
			c0.01-0.28-0.09-0.58-0.35-0.72c-0.51-0.28-0.99-0.61-1.43-1c-0.13-0.12,0,0.03,0.03,0.03c-0.02,0-0.16-0.16-0.18-0.17
			c-0.1-0.1-0.19-0.2-0.28-0.3c-0.19-0.22-0.37-0.45-0.53-0.69c-0.16-0.23-0.3-0.46-0.44-0.7c-0.03-0.06-0.07-0.12-0.1-0.18
			c-0.13-0.25,0.09,0.2-0.02-0.05c-0.06-0.13-0.11-0.25-0.16-0.38c-0.22-0.54-0.37-1.1-0.46-1.68c-0.05-0.28-0.37-0.5-0.61-0.58
			c-0.33-0.12-0.77-0.11-1.1-0.01C300.74,356.42,300.04,356.88,300.16,357.6L300.16,357.6z"/>
	</g>
</g>
<g>
	<g>
		<path d="M336.24,263.65c-0.21-0.19-0.39-0.41-0.53-0.66c0.04,0.07,0.07,0.13,0.11,0.2c-0.2-0.38-0.29-0.79-0.3-1.21
			c0,0.08,0,0.15,0.01,0.23c-0.01-0.31,0.03-0.62,0.11-0.93c0.02-0.08,0.04-0.16,0.07-0.23c0.01-0.03,0.02-0.07,0.04-0.1
			c0.06-0.18-0.07,0.16-0.02,0.06c0.07-0.14,0.14-0.29,0.23-0.42c0.04-0.06,0.08-0.12,0.12-0.18c0.12-0.18-0.18,0.2,0,0
			c0.05-0.06,0.11-0.11,0.16-0.17c0.03-0.02,0.05-0.05,0.08-0.07c0.16-0.15-0.09,0.09-0.12,0.09c0.03,0,0.16-0.11,0.19-0.13
			c0.22-0.14-0.33,0.15-0.09,0.05c0.04-0.02,0.08-0.03,0.12-0.05c0.17-0.08-0.24,0.08-0.23,0.08c0.04,0,0.09-0.03,0.13-0.04
			c0.11-0.03,0.32-0.06-0.21,0.04c0.39-0.07,0.76-0.16,1.09-0.38c0.2-0.13,0.51-0.4,0.54-0.66c0.07-0.65-0.8-0.81-1.28-0.72
			c-0.97,0.17-1.88,0.53-2.6,1.22c-0.51,0.49-0.87,1.11-1.08,1.78c-0.36,1.15-0.14,2.56,0.79,3.38c0.51,0.45,1.35,0.36,1.93,0.09
			c0.28-0.13,0.62-0.31,0.77-0.6C336.37,264.11,336.44,263.82,336.24,263.65L336.24,263.65z"/>
	</g>
</g>
<g>
	<path class="st10" d="M302.74,299.18"/>
	<g>
		<path d="M302.63,300.3c1.69,0,2.19-2.23,0.23-2.23C301.16,298.07,300.66,300.3,302.63,300.3L302.63,300.3z"/>
	</g>
</g>
<g>
	<g>
		<path d="M362.96,316.34c0.24-5.43,2.47-10.69,6.31-14.54c-0.93,0.14-1.85,0.29-2.78,0.43c0.08,2.33-0.28,4.62-1.02,6.83
			c-0.26,0.78,2.59,0.42,2.88-0.44c0.78-2.32,1.12-4.73,1.04-7.17c-0.01-0.41-1.02-0.31-1.21-0.28c-0.56,0.08-1.16,0.3-1.56,0.71
			c-4.04,4.06-6.3,9.55-6.55,15.24C360.03,317.76,362.92,317.33,362.96,316.34L362.96,316.34z"/>
	</g>
</g>
<g>
	<g>
		<path d="M319.71,448.63c-1.5,2.95-3.4,5.62-5.71,7.99c0.92-0.12,1.83-0.23,2.75-0.35c1.12-3.97,3.07-7.61,5.8-10.7
			c0.42-0.48-0.38-0.52-0.69-0.5c-0.6,0.03-1.5,0.24-1.94,0.7c-15.09,15.9-23.59,37.75-23.08,59.68c0.17,7.32,1.52,14.55,1.9,21.86
			c0.69-0.33,1.38-0.66,2.07-0.99c-1,0.07-1.45-1.42-1.26-2.13c0.17-0.64-2.67-0.25-2.86,0.5c-0.48,1.89,1.19,2.96,2.88,2.84
			c0.45-0.03,2.11-0.3,2.07-0.99c-0.33-6.5-1.46-12.93-1.81-19.42c-0.3-5.49-0.02-11.01,0.8-16.44
			c1.62-10.69,5.32-21.08,10.82-30.39c3.13-5.31,6.85-10.24,11.1-14.71c-0.88,0.07-1.75,0.13-2.63,0.2c-2.82,3.19-4.87,6.9-6.03,11
			c-0.23,0.82,2.46-0.06,2.75-0.35c2.39-2.45,4.39-5.23,5.94-8.29c0.25-0.48-1.01-0.33-1.17-0.31
			C320.9,447.91,319.97,448.12,319.71,448.63L319.71,448.63z"/>
	</g>
</g>
<g>
	<g>
		<path d="M255,359.87c-0.56-0.13-0.74-0.34-1.16-0.65c0.1-0.52-0.13-0.53-0.69-0.04c0.22-0.04,0.43-0.08,0.64-0.13
			c0.73-0.18,1.5-0.44,2-1.03c0.08-0.1,0.23-0.31,0.04-0.42c-1.27-0.73-2.89-0.38-4.16,0.21c-1.44,0.68-2.21,2.23-3.65,2.85
			c-2.35,1.01-5.4,0.99-6.83,3.49c-0.91,1.6-0.94,3.88-1.25,5.66c-0.36,2.11-0.72,4.22-1.08,6.32c-0.72,4.22-1.44,8.43-2.15,12.65
			c-0.13,0.75,2.74,0.27,2.86-0.49c1.16-6.81,2.32-13.62,3.48-20.43c0.24-1.38,0.27-3.2,1.1-4.39c0.66-0.94,1.77-1.14,2.81-1.42
			c1.12-0.3,2.23-0.63,3.25-1.19c0.52-0.28,2.64-2.39,2.88-2.26c0.01-0.14,0.03-0.28,0.04-0.42c0.55-0.16,0.68-0.21,0.38-0.15
			c-0.17,0.03-0.34,0.07-0.52,0.11c-0.33,0.08-0.64,0.19-0.95,0.33c-0.39,0.18-0.82,0.4-1.04,0.79c-0.55,1.02,0.82,1.59,1.6,1.77
			c0.65,0.15,1.44-0.05,2.03-0.35C254.9,360.56,255.66,360.02,255,359.87L255,359.87z"/>
	</g>
</g>
<g>
	<g>
		<path d="M261.73,358.44c-3.46-0.96-7,0.34-10.28,1.4c-3.09,1-6.15,2.13-8.67,4.25c-0.46,0.39,0.29,0.54,0.54,0.54
			c0.61,0,1.4-0.17,1.89-0.55c2.54-1.95,5.43-3.39,8.58-4.02c0.4-0.08,1.6-0.3,1.69-0.82c0.09-0.52-0.91-0.39-1.18-0.34
			c-4.1,0.83-8,2.48-11.33,5.03c0.81,0,1.62-0.01,2.44-0.01c1.88-1.59,4.22-2.41,6.53-3.16c2.37-0.78,4.9-1.84,7.41-1.15
			c0.63,0.18,1.46-0.06,2.03-0.35C261.66,359.11,262.37,358.61,261.73,358.44L261.73,358.44z"/>
	</g>
</g>
<g>
	<g>
		<path d="M256.98,356.57c0.04,0.12,0.05,0.25,0.05,0.38c0-0.07,0-0.14,0-0.21c0,0.19-0.04,0.37-0.12,0.54
			c0.03-0.07,0.07-0.14,0.1-0.22c-0.05,0.1-0.11,0.19-0.18,0.28c0.06-0.07,0.12-0.14,0.19-0.21c-0.03,0.03-0.06,0.06-0.09,0.08
			c0.16-0.18,0.26-0.19,0.13-0.1c0.26-0.13,0.34-0.17,0.24-0.12c-0.12,0.05-0.02,0.02,0.28-0.1c0.52-0.14,0.37-0.08,0.24-0.05
			c0.01,0,0.44-0.01,0.22-0.02c-0.17,0,0.36,0.06,0.18,0.02c-0.08-0.02-0.15-0.03-0.22-0.06c0.09,0.03,0.18,0.06,0.27,0.09
			c-0.43-0.15-0.81-0.42-1.24-0.58c-0.46-0.17-0.92-0.25-1.41-0.18c-0.62,0.08-1.28,0.31-1.74,0.76c-0.16,0.15-0.35,0.4-0.28,0.64
			c0.06,0.24,0.35,0.37,0.57,0.41c0.35,0.07,0.74,0.04,1.08-0.06c0.34-0.1,0.7-0.24,0.97-0.49c0.04-0.04,0.15-0.12-0.05,0.03
			c-0.11,0.08-0.17,0.11-0.35,0.2c0.17-0.08-0.43,0.13-0.28,0.09c0.13-0.03-0.47,0.08-0.29,0.06c0.05,0-0.43,0.01-0.27,0.02
			c0.16,0-0.31-0.05-0.21-0.02c0.06,0.02,0.12,0.03,0.18,0.05c-0.09-0.03-0.18-0.06-0.27-0.09c0.34,0.11,0.64,0.31,0.96,0.46
			c0.57,0.27,1.18,0.39,1.81,0.32c0.82-0.09,1.78-0.48,2.22-1.23c0.26-0.44,0.36-0.96,0.22-1.46c-0.07-0.24-0.35-0.36-0.57-0.41
			c-0.33-0.08-0.76-0.04-1.08,0.06c-0.34,0.1-0.71,0.24-0.97,0.49C257.1,356.09,256.91,356.31,256.98,356.57L256.98,356.57z"/>
	</g>
</g>
<g>
	<g>
		<path d="M318.28,361.88c1.88-0.08,3.75-0.15,5.63-0.23c0.6-0.02,1.38-0.22,1.83-0.64c0.38-0.36,0.18-0.59-0.3-0.67
			c-1.11-0.17-2.23-0.35-3.34-0.52c0.17,0.14,0.34,0.28,0.51,0.42c0.35-2.33-2.46-3.13-4.27-2.86c-1.35,0.2-2.62,0.84-3.62,1.78
			c-0.86,0.8-1.48,1.84-2.08,2.84c-0.3,0.5,1.03,0.41,1.19,0.38c0.58-0.09,1.36-0.31,1.68-0.85c0.43-0.72,0.86-1.43,1.42-2.06
			c0.22-0.25,0.45-0.48,0.71-0.68c0.13-0.1,0.24-0.17,0.38-0.24c-0.1,0.04-0.06,0.03,0.1-0.03c-0.45,0.11-0.54,0.14-0.28,0.09
			c-0.05,0.02-0.11,0.02-0.17,0.01c0.09,0,0.17,0.01,0.26,0.02c0.12,0.02,0.25,0.06,0.37,0.1c0.26,0.09,0.49,0.22,0.71,0.38
			c0.48,0.37,0.82,0.94,0.73,1.57c-0.05,0.33,0.24,0.38,0.51,0.42c1.11,0.17,2.23,0.35,3.34,0.52c0.51-0.44,1.02-0.87,1.53-1.31
			c-1.88,0.08-3.75,0.15-5.63,0.23c-0.6,0.02-1.53,0.22-1.93,0.72C317.16,361.8,317.92,361.9,318.28,361.88L318.28,361.88z"/>
	</g>
</g>
<g>
	<g>
		<path d="M318.5,360.82c0.62,0,1.61-0.18,1.9-0.83c0.26-0.6-0.23-1.01-0.83-1.01c-0.62,0-1.61,0.18-1.9,0.83
			C317.41,360.4,317.91,360.82,318.5,360.82L318.5,360.82z"/>
	</g>
</g>
<g>
	<g>
		<path d="M316.23,360.12c0.52,0,1.64-0.22,1.93-0.72c0.31-0.54-0.27-0.57-0.71-0.57c-0.52,0-1.64,0.22-1.93,0.72
			C315.21,360.08,315.79,360.12,316.23,360.12L316.23,360.12z"/>
	</g>
</g>
<g>
	<g>
		<path d="M317.32,360.05c0.57,0,1.63-0.2,1.92-0.78c0.29-0.57-0.25-0.79-0.77-0.79c-0.57,0-1.63,0.2-1.92,0.78
			C316.26,359.83,316.79,360.05,317.32,360.05L317.32,360.05z"/>
	</g>
</g>
<g>
	<g>
		<path d="M317.83,360.02c0.56,0,1.63-0.2,1.92-0.77c0.29-0.57-0.25-0.75-0.76-0.75c-0.56,0-1.63,0.2-1.92,0.77
			C316.78,359.84,317.32,360.02,317.83,360.02L317.83,360.02z"/>
	</g>
</g>
<g>
	<g>
		<path d="M316.84,360.96c0.65,0,1.59-0.18,1.9-0.85c0.27-0.6-0.24-1.07-0.84-1.07c-0.65,0-1.59,0.18-1.9,0.85
			C315.72,360.49,316.23,360.96,316.84,360.96L316.84,360.96z"/>
	</g>
</g>
<g>
	<g>
		<path d="M324.46,360.49c1.62,0,2.25-2.03,0.28-2.03C323.12,358.46,322.48,360.49,324.46,360.49L324.46,360.49z"/>
	</g>
</g>
<g>
	<g>
		<path d="M322.56,360.47c1.6,0,2.27-1.98,0.29-1.98C321.26,358.48,320.59,360.47,322.56,360.47L322.56,360.47z"/>
	</g>
</g>
<g>
	<g>
		<path d="M315.13,363.13c1.63,0,2.24-2.07,0.27-2.07C313.77,361.06,313.16,363.13,315.13,363.13L315.13,363.13z"/>
	</g>
</g>
<g>
	<g>
		<path d="M312.54,362.77c0.64,0,1.53-0.14,2.05-0.55c0.38-0.3,0.47-0.58-0.16-0.58c-0.64,0-1.53,0.14-2.05,0.55
			C312,362.48,311.91,362.77,312.54,362.77L312.54,362.77z"/>
	</g>
</g>
<g>
	<g>
		<path d="M311.96,363.57c0.55,0,1.63-0.21,1.92-0.76c0.3-0.56-0.25-0.72-0.75-0.72c-0.55,0-1.63,0.21-1.92,0.76
			C310.91,363.41,311.46,363.57,311.96,363.57L311.96,363.57z"/>
	</g>
</g>
<g>
	<g>
		<path d="M312,363.72c0.61,0,1.61-0.19,1.9-0.82c0.27-0.59-0.23-0.96-0.82-0.96c-0.61,0-1.61,0.19-1.9,0.82
			C310.91,363.35,311.41,363.72,312,363.72L312,363.72z"/>
	</g>
</g>
<g>
	<g>
		<path d="M311.99,363.92c0.6,0,1.62-0.19,1.91-0.81c0.27-0.59-0.23-0.94-0.81-0.94c-0.6,0-1.62,0.19-1.91,0.81
			C310.91,363.57,311.42,363.92,311.99,363.92L311.99,363.92z"/>
	</g>
</g>
<g>
	<g>
		<path d="M311.94,364.14c0.53,0,1.64-0.21,1.93-0.73c0.3-0.55-0.26-0.64-0.73-0.64c-0.53,0-1.64,0.21-1.93,0.73
			C310.91,364.06,311.47,364.14,311.94,364.14L311.94,364.14z"/>
	</g>
</g>
<g>
	<g>
		<path d="M312.01,364.38c0.62,0,1.61-0.18,1.9-0.83c0.26-0.6-0.23-1.02-0.83-1.02c-0.62,0-1.61,0.18-1.9,0.83
			C310.91,363.96,311.41,364.38,312.01,364.38L312.01,364.38z"/>
	</g>
</g>
<g>
	<g>
		<path d="M311.6,362.98c0.64,0,1.53-0.14,2.05-0.55c0.38-0.3,0.47-0.6-0.16-0.6c-0.64,0-1.53,0.14-2.05,0.55
			C311.06,362.68,310.96,362.98,311.6,362.98L311.6,362.98z"/>
	</g>
</g>
</svg>
